<svg width="60" height="60" viewBox="0 0 60 60" fill="none" xmlns="http://www.w3.org/2000/svg">
<path fill-rule="evenodd" clip-rule="evenodd" d="M48.583 59.2128C48.047 59.2128 47.611 58.7839 47.611 58.2567V43.7102C47.611 43.4544 47.712 43.2144 47.897 43.0335L51.542 39.458C53.741 37.302 55.22 34.5803 55.82 31.5862L57.586 22.779C57.716 22.1328 57.579 21.4777 57.2 20.9338C56.82 20.3889 56.248 20.0269 55.588 19.9118C55.444 19.8872 55.301 19.8754 55.159 19.8754C54.015 19.8754 53.026 20.6377 52.754 21.7295L51.842 25.3885C51.678 26.0485 51.108 26.4912 50.425 26.4912C50.364 26.4912 50.302 26.4872 50.239 26.4794C49.49 26.3908 48.946 25.7879 48.946 25.0453V7.99443C48.946 6.69312 47.869 5.63378 46.545 5.63378C45.311 5.63378 44.285 6.54361 44.158 7.7505L44.145 24.2053C44.145 24.7325 43.708 25.1613 43.172 25.1613C42.636 25.1613 42.201 24.7325 42.201 24.2053V7.99542C42.201 7.89607 42.205 7.7987 42.212 7.70132V4.86263C42.212 3.56132 41.135 2.50197 39.812 2.50197C38.488 2.50197 37.411 3.56132 37.411 4.86263V7.68853C37.418 7.7987 37.423 7.89607 37.423 7.99542V17.1744C37.423 17.7016 36.987 18.1295 36.451 18.1295C35.915 18.1295 35.479 17.7016 35.479 17.1744C35.479 17.1675 35.467 16.7908 35.467 16.7387V7.77116C35.339 6.5446 34.312 5.63378 33.078 5.63378C31.754 5.63378 30.677 6.69312 30.677 7.99542V14.3092C30.677 14.8364 30.242 15.2653 29.706 15.2653C29.169 15.2653 28.733 14.8364 28.733 14.3092V11.2364C28.605 10.0098 27.579 9.10001 26.345 9.10001C25.021 9.10001 23.944 10.1584 23.944 11.4607C23.944 11.9879 23.508 12.4157 22.972 12.4157C22.436 12.4157 22 11.9879 22 11.4607C22 9.10493 23.949 7.18788 26.345 7.18788C27.083 7.18788 27.814 7.37476 28.457 7.72886L28.725 7.8764L28.754 7.5764C28.973 5.38001 30.832 3.72263 33.078 3.72263C33.832 3.72263 34.577 3.91738 35.232 4.28624L35.481 4.42689L35.529 4.14853C35.883 2.08689 37.684 0.589844 39.812 0.589844C41.939 0.589844 43.741 2.08689 44.095 4.14853L44.143 4.42689L44.392 4.28624C45.047 3.91738 45.791 3.72263 46.545 3.72263C48.941 3.72263 50.89 5.63968 50.89 7.99542V20.1577L51.266 20.2512C52.041 18.8397 53.533 17.9633 55.161 17.9633C55.416 17.9633 55.673 17.9849 55.926 18.0292C57.105 18.2338 58.127 18.881 58.804 19.8528C59.48 20.8236 59.726 21.9941 59.494 23.1498L57.728 31.9571C57.052 35.3259 55.388 38.3879 52.916 40.8125L49.555 44.1075V58.2567C49.555 58.7839 49.119 59.2128 48.583 59.2128Z" fill="#4FBCF2"/>
<path fill-rule="evenodd" clip-rule="evenodd" d="M27.7592 59.6063C27.2232 59.6063 26.7872 59.1774 26.7872 58.6502V53.9614C26.7872 53.7096 26.8912 53.4627 27.0722 53.2846L29.2942 51.1059C32.0622 48.3922 33.5862 44.7804 33.5862 40.9374V29.6879C33.5862 29.5827 33.6172 29.4794 33.6512 29.383L33.6732 29.3191L33.6512 29.2551C33.6172 29.1587 33.5862 29.0555 33.5862 28.9502V23.5659C33.5862 22.3699 32.5962 21.3961 31.3792 21.3961C30.2462 21.3961 29.3022 22.2312 29.1852 23.3387L29.1832 28.54C29.1832 29.0673 28.7482 29.4961 28.2122 29.4961C27.6642 29.4961 27.2282 29.0673 27.2282 28.54L27.2392 20.3004C27.2392 19.1033 26.2492 18.1296 25.0322 18.1296C23.9002 18.1296 22.9562 18.9646 22.8392 20.0722L22.8372 28.54C22.8372 29.0673 22.4012 29.4961 21.8652 29.4961C21.3182 29.4961 20.8822 29.0673 20.8822 28.54V20.2994C20.8822 20.2059 20.8862 20.1135 20.8932 20.022V17.3476C20.8932 16.1505 19.9032 15.1777 18.6862 15.1777C17.4692 15.1777 16.4792 16.1505 16.4792 17.3476V20.0082C16.4872 20.1135 16.4902 20.2059 16.4902 20.2994V28.54C16.4902 29.0673 16.0552 29.4961 15.5192 29.4961C14.9712 29.4961 14.5352 29.0673 14.5352 28.54V20.0928C14.4162 18.9646 13.4732 18.1296 12.3402 18.1296C11.1232 18.1296 10.1332 19.1033 10.1332 20.2994V36.3696C10.1332 37.0974 9.60019 37.6886 8.8652 37.7761C8.80319 37.783 8.7422 37.7869 8.68219 37.7869C8.01219 37.7869 7.45519 37.3532 7.2942 36.7069L6.4342 33.2574C6.1832 32.2532 5.2742 31.5518 4.2222 31.5518C4.0922 31.5518 3.96019 31.5627 3.82719 31.5863C3.22019 31.6915 2.69419 32.024 2.34419 32.5246C1.99619 33.0253 1.87019 33.6282 1.98819 34.2233L3.65319 42.525C4.2172 45.3361 5.6062 47.8915 7.6702 49.9138L11.1062 53.2846C11.2872 53.4627 11.3912 53.7096 11.3912 53.9614V58.6502C11.3912 59.1774 10.9562 59.6063 10.4202 59.6063C9.88419 59.6063 9.4472 59.1774 9.4472 58.6502V54.3577L6.29719 51.2682C3.95819 48.9755 2.38419 46.0797 1.74619 42.8938L0.0811949 34.5941C-0.139805 33.4905 0.0941949 32.3722 0.740195 31.4446C1.38719 30.5171 2.36319 29.8984 3.48919 29.7027C3.73519 29.6604 3.97919 29.6397 4.22019 29.6397C5.67519 29.6397 7.05319 30.3981 7.81919 31.6187L8.18919 32.2099V20.3004C8.18919 18.0489 10.0512 16.2184 12.3402 16.2184C13.0302 16.2184 13.7152 16.3886 14.3192 16.7132L14.5592 16.841L14.6112 16.5764C14.9852 14.6584 16.6992 13.2666 18.6862 13.2666C20.6742 13.2666 22.3872 14.6584 22.7622 16.5764L22.8132 16.841L23.0542 16.7132C23.6582 16.3886 24.3432 16.2184 25.0332 16.2184C27.1292 16.2184 28.9002 17.7607 29.1522 19.8066L29.1872 20.0909L29.4452 19.9561C30.0382 19.6473 30.7072 19.484 31.3792 19.484C33.6682 19.484 35.5302 21.3155 35.5302 23.5659V28.9502C35.5302 29.0476 35.5042 29.143 35.4652 29.2561L35.4432 29.3191L35.4652 29.382C35.5042 29.4951 35.5302 29.5905 35.5302 29.6879V40.9374C35.5302 45.2918 33.8032 49.3846 30.6672 52.4604L28.7312 54.3577V58.6502C28.7312 59.1774 28.2952 59.6063 27.7592 59.6063Z" fill="#4FBCF2"/>
<path fill-rule="evenodd" clip-rule="evenodd" d="M16.4145 8.97592C16.1545 8.97592 15.9105 8.87658 15.7275 8.69559L9.54647 2.61789C9.36247 2.43789 9.26147 2.19789 9.26147 1.94215C9.26147 1.68641 9.36247 1.44641 9.54647 1.26641C9.72947 1.08641 9.97447 0.986084 10.2335 0.986084C10.4935 0.986084 10.7375 1.08641 10.9205 1.26641L17.1015 7.34412C17.2855 7.5251 17.3865 7.7651 17.3865 8.01985C17.3865 8.27559 17.2855 8.51559 17.1015 8.69559C16.9175 8.87658 16.6735 8.97592 16.4145 8.97592Z" fill="#4FBCF2"/>
<path fill-rule="evenodd" clip-rule="evenodd" d="M10.2367 12.4026C9.70071 12.4026 9.26471 11.9738 9.26471 11.4465C9.26471 10.9193 9.70071 10.4915 10.2367 10.4915H13.0967C13.6327 10.4915 14.0687 10.9193 14.0687 11.4465C14.0687 11.9738 13.6327 12.4026 13.0967 12.4026H10.2367Z" fill="#4FBCF2"/>
<path fill-rule="evenodd" clip-rule="evenodd" d="M19.8451 5.80159C19.3091 5.80159 18.8731 5.37274 18.8731 4.84553V1.93897C18.8731 1.41176 19.3091 0.983887 19.8451 0.983887C20.3811 0.983887 20.8171 1.41176 20.8171 1.93897V4.84553C20.8171 5.37274 20.3811 5.80159 19.8451 5.80159Z" fill="#4FBCF2"/>
</svg>
