<svg width="61" height="47" viewBox="0 0 61 47" fill="none" xmlns="http://www.w3.org/2000/svg">
<path fill-rule="evenodd" clip-rule="evenodd" d="M59.0425 44.3447H0.957488C0.428488 44.3447 0.000488281 44.7737 0.000488281 45.3027C0.000488281 45.8307 0.428488 46.2597 0.957488 46.2597H59.0425C59.5715 46.2597 60.0005 45.8307 60.0005 45.3027C60.0005 44.7737 59.5715 44.3447 59.0425 44.3447Z" fill="#4FBCF2"/>
<path fill-rule="evenodd" clip-rule="evenodd" d="M59.0425 40.5146H0.957488C0.428488 40.5146 0.000488281 40.9436 0.000488281 41.4726C0.000488281 42.0006 0.428488 42.4296 0.957488 42.4296H59.0425C59.5715 42.4296 60.0005 42.0006 60.0005 41.4726C60.0005 40.9436 59.5715 40.5146 59.0425 40.5146Z" fill="#4FBCF2"/>
<path fill-rule="evenodd" clip-rule="evenodd" d="M1.915 36.6858H58.085V1.91476H1.915V36.6858ZM59.043 -0.000244141H0.958C0.429 -0.000244141 0 0.428756 0 0.957756V37.6428C0 38.1718 0.429 38.6008 0.958 38.6008H59.043C59.571 38.6008 60 38.1718 60 37.6428V0.957756C60 0.428756 59.571 -0.000244141 59.043 -0.000244141Z" fill="#4FBCF2"/>
<path fill-rule="evenodd" clip-rule="evenodd" d="M4.78722 28.7143C7.59922 28.7143 9.88622 31.0013 9.88622 33.8123C9.88622 34.3413 10.3142 34.7703 10.8432 34.7703H49.1572C49.6852 34.7703 50.1142 34.3413 50.1142 33.8123C50.1142 31.0013 52.4012 28.7143 55.2132 28.7143C55.7422 28.7143 56.1702 28.2853 56.1702 27.7563V10.8433C56.1702 10.3143 55.7422 9.88535 55.2132 9.88535C52.4012 9.88535 50.1142 7.59835 50.1142 4.78735C50.1142 4.25835 49.6852 3.82935 49.1572 3.82935H45.3272C44.7982 3.82935 44.3702 4.25835 44.3702 4.78735C44.3702 5.31635 44.7982 5.74435 45.3272 5.74435H48.2652C48.6902 8.84735 51.1532 11.3103 54.2552 11.7353V26.8643C51.1532 27.2903 48.6902 29.7533 48.2652 32.8553H11.7352C11.3102 29.7533 8.84722 27.2903 5.74522 26.8643V11.7353C8.84722 11.3103 11.3102 8.84735 11.7352 5.74435H41.4972C42.0262 5.74435 42.4542 5.31635 42.4542 4.78735C42.4542 4.25835 42.0262 3.82935 41.4972 3.82935H10.8432C10.3142 3.82935 9.88622 4.25835 9.88622 4.78735C9.88622 7.59835 7.59822 9.88535 4.78722 9.88535C4.25822 9.88535 3.82922 10.3143 3.82922 10.8433V27.7563C3.82922 28.2853 4.25822 28.7143 4.78722 28.7143Z" fill="#4FBCF2"/>
<path fill-rule="evenodd" clip-rule="evenodd" d="M30 29.0259C24.637 29.0259 20.274 24.6629 20.274 19.2999C20.274 13.9379 24.637 9.57491 30 9.57491C35.363 9.57491 39.726 13.9379 39.726 19.2999C39.726 24.6629 35.363 29.0259 30 29.0259ZM30 7.65991C23.582 7.65991 18.359 12.8809 18.359 19.2999C18.359 25.7189 23.582 30.9409 30 30.9409C36.418 30.9409 41.641 25.7189 41.641 19.2999C41.641 12.8809 36.418 7.65991 30 7.65991Z" fill="#4FBCF2"/>
<path fill-rule="evenodd" clip-rule="evenodd" d="M34.4987 18.6606L29.9997 24.6066L25.5017 18.6606C25.2117 18.2786 25.0597 17.8226 25.0597 17.3416C25.0597 16.1336 26.0417 15.1516 27.2487 15.1516C28.0427 15.1516 28.7767 15.5826 29.1637 16.2786C29.3327 16.5816 29.6527 16.7696 29.9997 16.7696C30.3477 16.7696 30.6677 16.5816 30.8367 16.2786C31.2237 15.5826 31.9567 15.1516 32.7507 15.1516C33.9587 15.1516 34.9407 16.1336 34.9407 17.3416C34.9407 17.8226 34.7877 18.2786 34.4987 18.6606ZM32.7507 13.2366C31.7197 13.2366 30.7437 13.6246 29.9997 14.2956C29.2567 13.6236 28.2797 13.2366 27.2487 13.2366C24.9857 13.2366 23.1447 15.0776 23.1447 17.3416C23.1447 18.2426 23.4317 19.0986 23.9747 19.8156L29.2367 26.7716C29.4177 27.0106 29.6997 27.1516 29.9997 27.1516C30.2997 27.1516 30.5827 27.0106 30.7637 26.7716L36.0257 19.8166C36.5687 19.0986 36.8557 18.2426 36.8557 17.3416C36.8557 15.0776 35.0147 13.2366 32.7507 13.2366Z" fill="#4FBCF2"/>
</svg>
