<svg width="56" height="60" viewBox="0 0 56 60" fill="none" xmlns="http://www.w3.org/2000/svg">
<path fill-rule="evenodd" clip-rule="evenodd" d="M46.3438 41.078V40.8361C46.3438 23.8387 32.2222 10.0096 14.8641 10.0096H14.6227V8.09253H14.8641C33.291 8.09253 48.2826 22.7809 48.2826 40.8361V41.078H46.3438Z" fill="#4FBCF2"/>
<path fill-rule="evenodd" clip-rule="evenodd" d="M53.5787 41.078V40.8361C53.5787 19.9096 36.211 2.88511 14.8634 2.88511H14.622V0.968018H14.8634C37.2798 0.968018 55.5175 18.8529 55.5175 40.8361V41.078H53.5787Z" fill="#4FBCF2"/>
<path fill-rule="evenodd" clip-rule="evenodd" d="M29.4856 41.0375C28.9429 41.0375 28.5973 40.5168 28.5973 40.1587C28.7701 38.2716 29.614 36.0933 31.4263 36.0933C31.9496 36.0933 32.3155 36.4552 32.3155 36.972C32.3155 37.5091 31.7893 37.8516 31.4263 37.8516C30.7987 37.8516 30.3738 39.5839 30.3738 40.1587C30.1962 40.7229 29.8525 41.0375 29.4856 41.0375Z" fill="#4FBCF2"/>
<path fill-rule="evenodd" clip-rule="evenodd" d="M26.4381 46.7464C26.4024 47.6367 26.5231 49.1677 27.2066 49.938C27.4181 50.2448 27.7068 50.3658 28.1915 50.3658C29.7933 50.3658 31.6258 50.5187 33.6438 50.8206V49.8955L33.1484 48.7971C32.9727 48.4526 32.9911 48.0916 33.1987 47.8864L34.2665 46.4087C33.3184 46.0729 32.35 45.2822 32.35 43.9816C32.35 42.2958 34.0599 41.1171 35.0775 40.4793L33.1803 38.1442C32.9969 37.9661 32.9969 37.639 32.9969 37.4822L33.6524 34.998C33.6438 28.1213 26.7017 22.6864 17.8392 22.6864C13.0068 22.6864 8.49493 24.4709 5.46031 27.5832C3.11796 29.8903 1.77686 32.8932 1.77686 35.8255C1.77686 43.6109 9.76941 47.6909 12.5347 47.6909C13.2279 47.6909 13.8632 47.0377 14.6839 46.1155C15.9593 44.7171 17.5486 43.2296 20.2984 43.2296C22.8261 43.2296 23.9307 43.8713 24.818 44.3871L25.1762 44.5942C25.7507 44.9358 26.0973 45.1419 26.7683 45.1419C28.5062 45.1419 29.83 43.2035 29.9014 43.0245C30.0549 42.71 30.3658 42.5426 30.7308 42.5426C30.8602 42.5426 30.9886 42.5638 31.1141 42.6055C31.5273 42.8067 31.6905 43.3158 31.5264 43.8045L31.5071 43.8596L31.4665 43.9003C31.4607 43.908 31.4366 43.9429 31.4028 43.9903C29.7855 46.2887 28.0602 46.7716 26.8977 46.7716C26.7335 46.7716 26.581 46.7619 26.4381 46.7464ZM21.177 44.8777C21.15 45.2358 21.0746 45.5977 20.9897 46.0022L20.9231 46.3235C20.6595 47.9716 19.8513 53.0145 20.9849 54.1313C22.5673 55.6893 31.4762 57.6945 33.1639 57.7555C33.4574 57.4496 33.777 55.2974 33.6476 52.3496C31.5978 52.0313 29.7633 51.8696 28.1915 51.8696C27.2163 51.8696 26.5076 51.5822 25.8231 50.9087C24.5553 49.4338 24.538 46.9448 24.6577 46.1009C24.5331 46.0148 24.4115 45.9238 24.2898 45.828L24.0571 45.7167C23.4064 45.3838 22.6745 45.0093 21.177 44.8777ZM33.3676 59.5158C31.7571 59.5158 21.9243 57.5116 19.7461 55.5016C18.2766 54.0538 18.5904 50.5496 19.1533 46.1184C19.217 45.858 19.2479 45.6277 19.2769 45.41C19.2933 45.288 19.3097 45.168 19.33 45.0529C17.9358 45.3771 17.0262 46.279 16.0781 47.3309C15.1676 48.3538 14.0669 49.4484 12.5346 49.4484C8.95548 49.4484 0.131616 44.6755 0.000305176 35.8293C0.000305176 32.3909 1.49589 29.0251 4.21286 26.3493C7.71575 22.7726 12.6022 20.8003 17.9695 20.8003C27.8275 20.8003 35.5507 27.0645 35.5507 35.0609V35.1877L35.0515 37.4222L37.3089 40.2626C37.4913 40.4396 37.4913 40.7658 37.4913 40.9226C37.4913 41.2932 37.2799 41.5235 36.9217 41.5458C35.5873 42.2096 34.2559 43.1726 34.2559 43.8538C34.2559 44.7461 35.9542 44.8855 35.9716 44.8874H35.9726C36.3713 44.8874 36.5596 45.1467 36.688 45.4003C36.801 45.6219 36.829 45.8348 36.7691 46.0138C36.7247 46.1474 36.6349 46.2567 36.5075 46.3342L34.9491 48.4574L35.4203 49.2684L35.4213 49.3342C35.4589 49.3342 35.5507 49.4251 35.5507 49.5887V52.1377L35.5564 52.5393C35.6105 54.9548 35.5313 57.8648 34.4432 58.938C34.0107 59.3619 33.5636 59.5158 33.3676 59.5158Z" fill="#4FBCF2"/>
<path fill-rule="evenodd" clip-rule="evenodd" d="M23.0159 41.2924C20.4689 41.2924 16.9216 40.5444 16.236 40.3944C15.7514 40.2376 15.5283 39.9115 15.5283 39.3937C15.6944 38.8624 16.0227 38.6418 16.546 38.6418C18.954 39.1895 21.584 39.5389 23.2988 39.5389C24.1658 39.5389 24.4825 39.4479 24.5887 39.3995C24.6698 37.9257 26.1992 36.3018 27.634 34.8879C28.0771 34.4524 29.1141 33.4295 29.1151 33.1489C29.1151 32.7521 28.1747 31.8821 27.5529 31.3063C27.3482 31.1166 27.1531 30.9366 26.9871 30.7731C26.8635 30.6511 26.709 30.5302 26.5545 30.4082C26.3856 30.2747 26.2166 30.1411 26.0814 30.0076C25.9096 29.8392 25.8149 29.6195 25.8149 29.3902C25.8149 29.1599 25.9096 28.9402 26.0814 28.7718C26.2523 28.6034 26.4734 28.5105 26.7032 28.5105C26.934 28.5105 27.1551 28.6034 27.326 28.7718L28.1023 29.5363C29.4057 30.6908 30.7623 31.8937 30.7623 33.2766C30.7623 34.0799 30.1839 34.704 29.0311 35.9476L28.278 36.7673C27.3665 37.7534 26.234 38.9815 26.234 39.6482C26.234 40.1786 26.0167 40.6015 25.6074 40.8695C25.2443 41.2334 23.826 41.2924 23.0159 41.2924Z" fill="#4FBCF2"/>
</svg>
