<svg width="18" height="20" viewBox="0 0 18 20" fill="none" xmlns="http://www.w3.org/2000/svg">
<path fill-rule="evenodd" clip-rule="evenodd" d="M9 20C13.95 20 18 16 18 11.1111C18 6.22222 13.95 2.22222 9 2.22222V0L3.375 3.33333L9 6.66667V4.44444C12.7125 4.44444 15.75 7.44444 15.75 11.1111C15.75 14.7778 12.7125 17.7778 9 17.7778C5.2875 17.7778 2.25 14.7778 2.25 11.1111H0C0 16 4.05 20 9 20ZM5.89659 7.77778H7.20825V14.3545H5.87143V9.47977H5.81166C5.67326 9.69814 5.21088 9.96789 4.5 9.96789V8.8632C5.32726 8.8632 5.88086 8.17919 5.89659 7.77778ZM13.5 12.1612C13.5031 13.4907 12.528 14.4444 11.0937 14.4444C9.76002 14.4444 8.78807 13.632 8.76291 12.4952H10.084C10.1155 13.0058 10.5527 13.3526 11.0937 13.3526C11.7322 13.3526 12.1883 12.8805 12.1883 12.1965C12.1883 11.5061 11.7228 11.0276 11.0748 11.0244C10.6942 11.0244 10.3105 11.1946 10.1123 11.4676L8.90131 11.246L9.20642 7.77778H13.1446V8.91458H10.3294L10.1626 10.562H10.2004C10.4269 10.2376 10.9144 9.99679 11.4806 9.99679C12.6413 9.99679 13.5031 10.9024 13.5 12.1612Z" fill="currentColor"/>
</svg>
