<svg fill="none" height="160" width="270" xmlns="http://www.w3.org/2000/svg" xmlns:xlink="http://www.w3.org/1999/xlink">
    <filter id="a" color-interpolation-filters="sRGB" filterUnits="userSpaceOnUse" height="35" width="17.5" x="136" y="105">
        <feFlood flood-opacity="0" result="BackgroundImageFix"/>
        <feBlend in="SourceGraphic" in2="BackgroundImageFix" result="shape"/>
        <feColorMatrix in="SourceAlpha" result="hardAlpha" values="0 0 0 0 0 0 0 0 0 0 0 0 0 0 0 0 0 0 127 0"/>
        <feOffset dx="-2"/>
        <feComposite in2="hardAlpha" k2="-1" k3="1" operator="arithmetic"/>
        <feColorMatrix values="0 0 0 0 0.65098 0 0 0 0 0.823529 0 0 0 0 1 0 0 0 1 0"/>
        <feBlend in2="shape" result="effect1_innerShadow"/>
    </filter>
    <rect fill="#0080ff" height="160" rx="2" width="270"/>
    <g filter="url(#a)"><path d="m136 105 17.5 17.5-17.5 17.5z" fill="#0080ff"/></g>
    <g fill="#fff">
        <path clip-rule="evenodd" d="m32.477 44.52v-4.657c4.932 0 8.726-4.893 6.853-10.072-.712-1.924-2.23-3.468-4.15-4.157-5.169-1.877-10.053 1.924-10.053 6.865h-4.647c0-7.863 7.587-13.991 15.815-11.426 3.604 1.117 6.449 3.99 7.563 7.578 2.56 8.267-3.533 15.868-11.38 15.868z" fill-rule="evenodd"/>
        <path clip-rule="evenodd" d="m27.854 35.231h4.623v4.632h-4.623zm-3.557 8.195v-3.563h3.557v3.563zm-2.987-6.532h2.987v2.97h-2.987zm36.774-10.904c1.992 0 3.7.5 5.074 1.45.759.498 1.352 1.235 1.755 2.137.403.927.616 2.02.616 3.231 0 1.235-.213 2.328-.616 3.255-.403.926-.996 1.686-1.755 2.209-1.375 1.021-3.082 1.52-5.074 1.52h-4.339v-13.802h4.34zm-.427 2.352h-1.351v9.122h1.375c1.541 0 2.798-.309 3.699-.903 1.043-.688 1.589-1.947 1.589-3.753 0-1.734-.546-2.945-1.589-3.587-.948-.57-2.205-.879-3.723-.879zm10.907-2.518c-.426 0-.782.143-1.067.428a1.46 1.46 0 0 0 -.45 1.045c0 .428.142.784.45 1.069.285.285.64.451 1.067.451s.783-.142 1.067-.451a1.51 1.51 0 0 0 .45-1.069c0-.428-.142-.784-.45-1.045a1.484 1.484 0 0 0 -1.067-.428z" fill-rule="evenodd"/>
        <path d="m67.308 30.076h2.442v9.739h-2.442z"/>
        <path clip-rule="evenodd" d="m76.199 29.839c.877 0 1.707.38 2.442 1.045h.024v-.808h2.394v8.837c0 1.473-.426 2.66-1.303 3.54-.854.879-2.04 1.33-3.486 1.33-1.09 0-1.992-.238-2.727-.713s-1.28-.974-1.636-1.473l-.047-.07 1.66-1.592c.877 1.164 1.565 1.615 2.703 1.615.735 0 1.327-.214 1.754-.641.427-.452.64-1.07.64-1.877v-.237c-.663.522-1.47.783-2.418.783-1.352 0-2.466-.475-3.343-1.377-.877-.95-1.304-2.115-1.304-3.492 0-1.402.426-2.59 1.304-3.492.877-.903 1.992-1.378 3.343-1.378zm.118 7.506c.712 0 1.257-.237 1.684-.712.403-.475.64-1.117.64-1.9 0-.784-.213-1.45-.64-1.925-.427-.499-.972-.736-1.684-.736-.687 0-1.232.261-1.66.736-.426.475-.64 1.14-.64 1.924s.214 1.426.64 1.9c.404.476.95.713 1.66.713z" fill-rule="evenodd"/>
        <path d="m83.122 30.076h2.442v9.739h-2.442z"/>
        <path clip-rule="evenodd" d="m84.379 25.824c-.427 0-.782.143-1.067.428a1.46 1.46 0 0 0 -.45 1.045c0 .428.142.784.45 1.069.285.285.64.451 1.067.451s.782-.142 1.067-.451a1.51 1.51 0 0 0 .45-1.069c0-.428-.142-.784-.45-1.045a1.484 1.484 0 0 0 -1.067-.428zm6.544 1.639h-2.395v2.637h-1.398v2.233h1.4v4.038c0 1.26.26 2.162.758 2.685.498.522 1.375.784 2.632.784.403 0 .806-.024 1.185-.048h.119v-2.232l-.83.048c-.593 0-.972-.095-1.162-.31-.19-.213-.284-.64-.284-1.282v-3.706h2.276v-2.233h-2.276v-2.613h-.024z" fill-rule="evenodd"/>
        <path d="m104.651 25.991h2.442v13.802h-2.442z"/>
        <path clip-rule="evenodd" d="m131.776 36.324c-.427.499-.878.926-1.233 1.14-.332.214-.759.333-1.257.333-.711 0-1.304-.261-1.778-.808-.474-.546-.711-1.235-.711-2.067 0-.831.237-1.52.687-2.042.474-.547 1.043-.808 1.755-.808.782 0 1.612.499 2.323 1.33l1.613-1.544c-1.044-1.378-2.395-2.02-4.007-2.02-1.352 0-2.514.5-3.462 1.45s-1.423 2.185-1.423 3.634c0 1.45.475 2.661 1.423 3.635s2.11 1.449 3.462 1.449c1.778 0 3.201-.76 4.149-2.162zm8.63-6.057a3.953 3.953 0 0 1 1.399 1.163c.356.5.617 1.022.783 1.568.166.57.26 1.164.26 1.806l-.023.902h-6.473c.047.618.284 1.117.687 1.473.427.404.973.594 1.66.594.451 0 .877-.071 1.233-.261a2.74 2.74 0 0 0 .711-.523l.146-.142c.146-.143.293-.285.4-.428l1.588 1.544-.047.071c-.996 1.33-2.371 1.996-4.007 1.996-1.446 0-2.656-.475-3.533-1.402-.901-.95-1.351-2.161-1.351-3.634 0-1.45.426-2.66 1.232-3.659.83-.997 1.945-1.496 3.32-1.496.759 0 1.423.142 2.015.428zm-3.93 3.444a8.215 8.215 0 0 0 -.006.024v-.024zm0 0h3.764a1.926 1.926 0 0 0 -.498-1.14c-.308-.333-.758-.5-1.351-.5-.522 0-.948.167-1.28.5a2.42 2.42 0 0 0 -.635 1.14zm11.684-3.848c1.28 0 2.299.308 3.034.95.759.641 1.139 1.568 1.091 2.732v6.27h-2.395v-.807c-.782.642-1.659 1.022-2.584 1.022s-1.707-.285-2.347-.808c-.641-.546-.949-1.306-.949-2.21 0-1.02.38-1.852 1.115-2.422s1.73-.855 2.94-.855c.592 0 1.185.095 1.802.285v-.475c0-.428-.143-.784-.475-1.046-.331-.261-.735-.404-1.256-.404-.949 0-1.66.357-2.3 1.378l-1.565-1.496-.024-.024c.403-.713 1.02-1.235 1.66-1.568a5.147 5.147 0 0 1 2.253-.523zm-.143 5.938c-.498 0-.877.095-1.162.285a.918.918 0 0 0 -.403.76c0 .31.119.523.332.713.214.19.546.285.972.285.878 0 1.589-.237 2.111-.736v-.95a5.307 5.307 0 0 0 -1.85-.357zm13.705-4.798c-.688-.76-1.636-1.14-2.845-1.14-.973 0-1.755.285-2.348.831v-.594h-2.394v9.74h2.442v-5.393c0-.736.166-1.33.521-1.734.356-.428.806-.617 1.447-.617.545 0 .972.19 1.28.546.308.38.474.879.474 1.52v5.63h2.442v-5.63c0-1.33-.332-2.4-1.019-3.16zm-63.164-1.14c1.28 0 2.3.308 3.035.95.735.641 1.114 1.568 1.09 2.732v6.27h-2.394v-.807c-.783.642-1.66 1.022-2.585 1.022s-1.707-.285-2.347-.808c-.64-.546-.949-1.306-.949-2.21 0-1.02.38-1.852 1.115-2.422s1.73-.855 2.94-.855c.593 0 1.185.095 1.802.285v-.475c0-.428-.142-.784-.474-1.046-.332-.261-.735-.404-1.257-.404-.948 0-1.66.357-2.3 1.378l-1.565-1.496-.023-.024c.403-.713 1.02-1.235 1.66-1.568a5.146 5.146 0 0 1 2.252-.523zm-.143 5.938c-.498 0-.877.095-1.161.285a.861.861 0 0 0 -.403.76c0 .31.118.523.332.713.213.19.545.285.972.285.877 0 1.588-.237 2.11-.736v-.95a5.307 5.307 0 0 0 -1.85-.357zm10.433-2.921c0 3.943 3.201 7.126 7.113 7.126s7.113-3.183 7.113-7.127c0-3.943-3.201-7.126-7.113-7.126a7.11 7.11 0 0 0 -7.113 7.126zm2.513.023a4.609 4.609 0 0 1 4.6-4.608 4.609 4.609 0 0 1 0 9.217 4.609 4.609 0 0 1 -4.6-4.609z" fill-rule="evenodd"/><path d="m27.585 91.273h-6.511v8.727h1.057v-7.79h4.397v7.79h1.057zm4.567 8.863c1.636 0 2.778-1.312 2.778-3.392 0-2.062-1.142-3.375-2.795-3.375-1.278 0-1.67.784-1.892 1.125h-.12v-1.04h-.971v9.001h1.006v-3.46h.085c.222.357.648 1.141 1.909 1.141zm-.136-.903c-1.21 0-1.875-1.023-1.875-2.506 0-1.466.647-2.454 1.875-2.454 1.278 0 1.909 1.074 1.909 2.454 0 1.398-.648 2.506-1.91 2.506zm6.68.903c1.772 0 2.965-1.346 2.965-3.375 0-2.045-1.193-3.392-2.966-3.392s-2.966 1.347-2.966 3.392c0 2.029 1.193 3.375 2.966 3.375zm0-.903c-1.347 0-1.961-1.16-1.961-2.472s.614-2.488 1.96-2.488c1.347 0 1.96 1.176 1.96 2.488 0 1.313-.613 2.472-1.96 2.472zm7.651-.597-2.25-5.181h-1.33v6.545h1.006v-5.1l2.165 5.1h.818l2.165-5.007v5.007h1.006v-6.546h-1.297l-2.284 5.182zm7.651 1.5c1.773 0 2.966-1.346 2.966-3.375 0-2.045-1.193-3.392-2.966-3.392s-2.966 1.347-2.966 3.392c0 2.029 1.193 3.375 2.966 3.375zm0-.903c-1.346 0-1.96-1.16-1.96-2.472s.614-2.488 1.96-2.488c1.347 0 1.96 1.176 1.96 2.488 0 1.313-.613 2.472-1.96 2.472zm4.073.767h1.005v-2.761h.904l2.147 2.761h1.296l-2.676-3.392 2.642-3.154h-1.296l-2.352 2.847h-.665v-2.847h-1.005zm8.406.136c1.773 0 2.966-1.346 2.966-3.375 0-2.045-1.193-3.392-2.966-3.392s-2.966 1.347-2.966 3.392c0 2.029 1.193 3.375 2.966 3.375zm0-.903c-1.347 0-1.96-1.16-1.96-2.472s.613-2.488 1.96-2.488c1.346 0 1.96 1.176 1.96 2.488 0 1.313-.614 2.472-1.96 2.472zm3.373 2.642h1.006v-1.875h4.841v1.875h1.006v-2.813h-1.006v-5.608h-4.159l-.222 2.592c-.157 1.832-.392 2.462-.92 3.016h-.546zm1.688-2.813c.46-.605.626-1.649.767-3.016l.17-1.654h2.216v4.67zm-50.617 12.938h1.005v-5.608h3.137v5.608h1.005v-6.545h-5.148v6.545zm9.555.136c1.637 0 2.779-1.312 2.779-3.392 0-2.062-1.142-3.375-2.796-3.375-1.278 0-1.67.784-1.892 1.125h-.12v-1.039h-.97v9h1.005v-3.461h.085c.222.358.648 1.142 1.91 1.142zm-.136-.903c-1.21 0-1.875-1.023-1.875-2.506 0-1.466.648-2.454 1.875-2.454 1.278 0 1.909 1.074 1.909 2.454 0 1.398-.648 2.506-1.91 2.506zm5.026-.716v-5.062h-1.006v6.545h1.176l3.137-5.062v5.062h1.005v-6.545h-1.158l-3.153 5.062zm11.672 1.619c1.637 0 2.779-1.312 2.779-3.392 0-2.062-1.142-3.375-2.796-3.375-1.278 0-1.67.784-1.892 1.125h-.12v-1.039h-.97v9h1.005v-3.461h.085c.222.358.648 1.142 1.91 1.142zm-.136-.903c-1.21 0-1.875-1.023-1.875-2.506 0-1.466.648-2.454 1.875-2.454 1.278 0 1.909 1.074 1.909 2.454 0 1.398-.648 2.506-1.91 2.506zm6.764.903c1.33 0 2.302-.664 2.608-1.653l-.971-.273c-.256.682-.848 1.023-1.637 1.023-1.18 0-1.994-.763-2.04-2.165h4.75v-.426c0-2.437-1.448-3.273-2.812-3.273-1.773 0-2.949 1.398-2.949 3.409 0 2.012 1.16 3.358 3.051 3.358zm-2.04-3.937c.067-1.019.788-1.926 1.938-1.926 1.091 0 1.79.818 1.79 1.926h-3.729zm9.892-2.744h-4.04v6.545h1.006v-5.608h3.034zm2.045 5.062v-5.062h-1.006v6.545h1.176l3.137-5.062v5.062h1.005v-6.545h-1.159zm8.385 1.619c1.449 0 2.403-.886 2.574-2.045h-1.006c-.188.716-.784 1.142-1.568 1.142-1.193 0-1.96-.989-1.96-2.506 0-1.483.784-2.454 1.96-2.454.886 0 1.415.545 1.568 1.142h1.006c-.17-1.227-1.21-2.046-2.591-2.046-1.773 0-2.95 1.398-2.95 3.392 0 1.961 1.126 3.375 2.967 3.375zm3.1-5.744h2.165v5.608h1.005v-5.608h2.148v-.937h-5.318zm9.356 5.744c1.637 0 2.779-1.312 2.779-3.392 0-2.062-1.142-3.375-2.796-3.375-1.278 0-1.67.784-1.892 1.125h-.12v-1.039h-.97v9h1.005v-3.461h.085c.222.358.648 1.142 1.91 1.142zm-.136-.903c-1.21 0-1.875-1.023-1.875-2.506 0-1.466.648-2.454 1.875-2.454 1.278 0 1.909 1.074 1.909 2.454 0 1.398-.648 2.506-1.91 2.506zm5.946.92c1.142 0 1.739-.613 1.944-1.039h.05v.886h1.006v-4.312c0-2.08-1.585-2.319-2.42-2.319-.989 0-2.114.341-2.625 1.534l.954.341c.222-.477.746-.988 1.705-.988.933 0 1.38.498 1.38 1.346 0 .486-.494.46-1.687.614-1.214.158-2.54.426-2.54 1.926 0 1.278.989 2.011 2.233 2.011zm.154-.903c-.801 0-1.38-.358-1.38-1.057 0-.767.698-1.005 1.482-1.108.426-.051 1.568-.17 1.739-.375v.921c0 .818-.648 1.619-1.841 1.619zm9.401-5.795h-1.006v5.607h-3.136v-5.607h-1.006v6.545h5.148v2.114h1.006v-3.052h-1.006zm3.047 5.062v-5.062h-1.006v6.545h1.176l3.136-5.062v5.062h1.006v-6.545h-1.159zm6.731 0v-5.062h-1.005v6.545h1.176l3.136-5.062v5.062h1.006v-6.545h-1.159z" opacity=".65"/><path d="m21.207 137h3.026v-6.172c0-1.342.98-2.266 2.315-2.266.42 0 .995.072 1.279.164v-2.685a4.536 4.536 0 0 0 -.952-.106c-1.222 0-2.223.71-2.62 2.059h-.114v-1.903h-2.934zm10.982.206c1.612 0 2.657-.703 3.19-1.719h.084v1.513h2.87v-7.358c0-2.599-2.202-3.693-4.63-3.693-2.615 0-4.333 1.25-4.752 3.239l2.798.227c.206-.725.852-1.257 1.939-1.257 1.03 0 1.62.518 1.62 1.413v.043c0 .703-.747.795-2.643.98-2.159.199-4.098.923-4.098 3.359 0 2.159 1.541 3.253 3.622 3.253zm.867-2.088c-.93 0-1.598-.433-1.598-1.264 0-.853.703-1.272 1.768-1.421.66-.092 1.74-.248 2.102-.49v1.158c0 1.143-.944 2.017-2.272 2.017zm11.644 2.06c1.761 0 2.677-1.016 3.096-1.925h.128v1.747h2.983v-14.545h-3.017v5.468h-.093c-.404-.887-1.278-1.974-3.103-1.974-2.394 0-4.418 1.861-4.418 5.611 0 3.65 1.94 5.618 4.425 5.618zm.959-2.408c-1.485 0-2.294-1.321-2.294-3.225 0-1.889.795-3.188 2.294-3.188 1.47 0 2.294 1.242 2.294 3.188s-.838 3.225-2.294 3.225zm7.736 2.23h3.025v-10.909h-3.025zm1.52-12.315c.902 0 1.64-.689 1.64-1.534 0-.839-.738-1.527-1.64-1.527-.895 0-1.634.688-1.634 1.527 0 .845.739 1.534 1.634 1.534zm8.858 12.528c3.31 0 5.37-2.266 5.37-5.625 0-3.381-2.06-5.639-5.37-5.639s-5.37 2.258-5.37 5.639c0 3.359 2.06 5.625 5.37 5.625zm.014-2.344c-1.527 0-2.308-1.399-2.308-3.302 0-1.904.781-3.31 2.308-3.31 1.499 0 2.28 1.406 2.28 3.31 0 1.903-.781 3.302-2.28 3.302zm13.125-8.778h-2.052v-2.614h-3.026v2.614h-1.491v2.273h1.491v5.681c-.014 2.138 1.442 3.196 3.636 3.104a5.887 5.887 0 0 0 1.641-.284l-.476-2.251c-.149.028-.469.099-.753.099-.603 0-1.022-.227-1.022-1.065v-5.284h2.052z"/><path d="m197.517 91.273h-6.512v8.727h1.057v-7.79h4.398v7.79h1.057zm4.225 8.863c1.773 0 2.966-1.346 2.966-3.375 0-2.045-1.193-3.392-2.966-3.392-1.772 0-2.965 1.347-2.965 3.392 0 2.029 1.193 3.375 2.965 3.375zm0-.903c-1.346 0-1.96-1.16-1.96-2.472s.614-2.488 1.96-2.488c1.347 0 1.961 1.176 1.961 2.488 0 1.313-.614 2.472-1.961 2.472zm4.073.767h1.006v-5.608h3.136v5.608h1.006v-6.546h-5.148zm9.215.136c1.773 0 2.966-1.346 2.966-3.375 0-2.045-1.193-3.392-2.966-3.392s-2.966 1.347-2.966 3.392c0 2.029 1.193 3.375 2.966 3.375zm0-.903c-1.347 0-1.96-1.16-1.96-2.472s.613-2.488 1.96-2.488c1.346 0 1.96 1.176 1.96 2.488 0 1.313-.614 2.472-1.96 2.472zm3.493.767h.341c1.449 0 1.866-1.125 1.96-3.273l.102-2.335h2.404v5.608h1.005v-6.546h-4.363l-.12 2.898c-.085 2.2-.306 2.71-1.091 2.71h-.238zm8.235-6.546h-1.006v6.546h1.006v-2.796h3.136v2.796h1.006v-6.546h-1.006v2.813h-3.136zm9.487 6.546h.955v-6.546h-2.693c-1.411 0-2.267.738-2.267 1.944 0 .899.451 1.538 1.24 1.806l-1.598 2.796h1.091l1.517-2.66h1.755zm0-3.597h-1.858c-.711 0-1.142-.379-1.142-1.005 0-.635.478-1.023 1.262-1.023h1.738zm5.117 3.733c1.329 0 2.301-.664 2.608-1.653l-.972-.273c-.256.682-.848 1.023-1.636 1.023-1.181 0-1.995-.763-2.041-2.165h4.751v-.426c0-2.438-1.449-3.273-2.813-3.273-1.772 0-2.948 1.398-2.948 3.41 0 2.01 1.159 3.357 3.051 3.357zm-2.041-3.937c.068-1.019.788-1.926 1.938-1.926 1.091 0 1.79.818 1.79 1.926zm5.243-1.807h2.165v5.608h1.005v-5.608h2.148v-.938h-5.318zm-50.303 17.761c1.142 0 1.739-.613 1.943-1.039h.052v.886h1.005v-4.312c0-2.08-1.585-2.319-2.42-2.319-.989 0-2.114.341-2.625 1.534l.954.341c.222-.477.746-.988 1.705-.988.925 0 1.381.49 1.381 1.329v.034c0 .486-.495.443-1.688.597-1.214.158-2.54.426-2.54 1.926 0 1.278.989 2.011 2.233 2.011zm.154-.903c-.802 0-1.381-.358-1.381-1.057 0-.767.699-1.005 1.483-1.108.426-.051 1.568-.17 1.739-.375v.921c0 .818-.648 1.619-1.841 1.619zm4.253.75h1.006v-2.761h.903l2.148 2.761h1.295l-2.676-3.392 2.642-3.153h-1.295l-2.352 2.846h-.665v-2.846h-1.006zm6.017 0h1.006v-2.761h.903l2.148 2.761h1.295l-2.676-3.392 2.642-3.153h-1.295l-2.353 2.846h-.664v-2.846h-1.006zm7.943.153c1.142 0 1.738-.613 1.943-1.039h.051v.886h1.006v-4.312c0-2.08-1.585-2.319-2.421-2.319-.988 0-2.113.341-2.625 1.534l.955.341c.222-.477.746-.988 1.704-.988.925 0 1.381.49 1.381 1.329v.034c0 .486-.494.443-1.687.597-1.215.158-2.54.426-2.54 1.926 0 1.278.989 2.011 2.233 2.011zm.153-.903c-.801 0-1.38-.358-1.38-1.057 0-.767.698-1.005 1.483-1.108.426-.051 1.568-.17 1.738-.375v.921c0 .818-.648 1.619-1.841 1.619zm4.667 3.188c.908 0 1.551-.482 1.926-1.483l2.787-7.483-1.099-.017-1.807 5.215h-.068l-1.807-5.215h-1.091l2.421 6.579-.188.511c-.358.981-.818 1.074-1.551.887l-.256.886c.103.051.392.12.733.12zm6.621-8.983h-1.006v6.545h1.006v-2.795h3.136v2.795h1.006v-6.545h-1.006v2.812h-3.136zm4.659.937h2.165v5.608h1.006v-5.608h2.148v-.937h-5.319zm10.309-.937h-1.005v6.545h1.005v-2.795h3.137v2.795h1.005v-6.545h-1.005v2.812h-3.137zm7.476 6.698c1.142 0 1.739-.613 1.944-1.039h.051v.886h1.005v-4.312c0-2.08-1.585-2.319-2.42-2.319-.989 0-2.114.341-2.625 1.534l.955.341c.221-.477.745-.988 1.704-.988.925 0 1.381.49 1.381 1.329v.034c0 .486-.495.443-1.688.597-1.214.158-2.54.426-2.54 1.926 0 1.278.989 2.011 2.233 2.011zm.154-.903c-.801 0-1.381-.358-1.381-1.057 0-.767.699-1.005 1.483-1.108.426-.051 1.568-.17 1.739-.375v.921c0 .818-.648 1.619-1.841 1.619z" opacity=".65"/><path d="m205.316 138.818h1.676l.014-1.64c3.076-.235 4.858-1.868 4.865-4.333-.007-2.422-1.832-3.707-4.36-4.275l-.419-.1.028-3.551c.945.22 1.52.824 1.605 1.719h2.948c-.036-2.351-1.79-4.034-4.525-4.333l.015-1.669h-1.676l-.015 1.655c-2.777.27-4.737 1.946-4.723 4.368-.007 2.145 1.506 3.374 3.963 3.963l.682.171-.035 3.757c-1.158-.22-1.939-.931-2.017-2.117h-2.976c.071 2.87 1.953 4.475 4.964 4.737zm1.719-4.268.028-3.317c1.101.348 1.698.795 1.705 1.605-.007.859-.661 1.499-1.733 1.712zm-1.62-6.513c-.887-.305-1.527-.767-1.512-1.584 0-.76.539-1.349 1.541-1.555zm14.768-5.582h-2.891l-3.601 2.279v2.728l3.331-2.088h.086v11.626h3.075zm9.16 14.865c3.658 0 5.867-2.784 5.874-7.579.007-4.758-2.23-7.485-5.874-7.485-3.651 0-5.866 2.72-5.874 7.485-.014 4.78 2.209 7.571 5.874 7.579zm0-2.55c-1.669 0-2.749-1.676-2.741-5.029.007-3.302 1.079-4.964 2.741-4.964 1.655 0 2.734 1.662 2.734 4.964.008 3.353-1.072 5.029-2.734 5.029zm13.77 2.55c3.657 0 5.866-2.784 5.873-7.579.007-4.758-2.23-7.485-5.873-7.485-3.651 0-5.867 2.72-5.874 7.485-.014 4.78 2.209 7.571 5.874 7.579zm0-2.55c-1.669 0-2.749-1.676-2.742-5.029.007-3.302 1.08-4.964 2.742-4.964 1.654 0 2.734 1.662 2.734 4.964.007 3.353-1.072 5.029-2.734 5.029z"/>
    </g>
</svg>