<svg width="270" height="160" viewBox="0 0 270 160" fill="none" xmlns="http://www.w3.org/2000/svg">
<rect width="270" height="160" rx="2" fill="#0080FF"/>
<g filter="url(#filter0_i)">
<path d="M136 105L153.5 122.5L136 140V105Z" fill="#0080FF"/>
</g>
<path fill-rule="evenodd" clip-rule="evenodd" d="M32.4773 44.5192V39.8632C37.409 39.8632 41.2026 34.9697 39.3295 29.7911C38.6182 27.867 37.1007 26.3229 35.1802 25.634C30.0114 23.7574 25.1271 27.5582 25.1271 32.4992H20.4799C20.4799 24.6363 28.0671 18.5076 36.2946 21.0731C39.8986 22.1896 42.7438 25.0639 43.8582 28.6509C46.4189 36.9176 40.3253 44.5192 32.4773 44.5192Z" fill="white"/>
<path fill-rule="evenodd" clip-rule="evenodd" d="M27.8537 35.231H32.4772V39.8632H27.8537V35.231Z" fill="white"/>
<path fill-rule="evenodd" clip-rule="evenodd" d="M24.2972 43.4265V39.8633H27.8537V43.4265H24.2972Z" fill="white"/>
<path fill-rule="evenodd" clip-rule="evenodd" d="M21.3097 36.8938H24.2972V39.8632H21.3097V36.8938Z" fill="white"/>
<path fill-rule="evenodd" clip-rule="evenodd" d="M58.0843 25.9902C60.076 25.9902 61.7831 26.4891 63.1583 27.4393C63.917 27.9381 64.5098 28.6745 64.9129 29.5772C65.3159 30.5037 65.5293 31.5964 65.5293 32.8079C65.5293 34.0431 65.3159 35.1359 64.9129 36.0623C64.5098 36.9887 63.917 37.7489 63.1583 38.2715C61.7831 39.293 60.076 39.7918 58.0843 39.7918H53.7453V25.9902H58.0843ZM57.6575 28.342H56.3061V37.4638H57.6812C59.2224 37.4638 60.4791 37.155 61.38 36.5612C62.4233 35.8723 62.9686 34.6133 62.9686 32.8079C62.9686 31.0738 62.4233 29.8623 61.38 29.2209C60.4316 28.6508 59.175 28.342 57.6575 28.342Z" fill="white"/>
<path fill-rule="evenodd" clip-rule="evenodd" d="M68.5643 25.824C68.1375 25.824 67.7818 25.9665 67.4973 26.2516C67.2128 26.5366 67.0468 26.8929 67.0468 27.2968C67.0468 27.7244 67.1891 28.0807 67.4973 28.3657C67.7818 28.6508 68.1375 28.8171 68.5643 28.8171C68.991 28.8171 69.3467 28.6746 69.6312 28.3657C69.9157 28.0807 70.0817 27.7006 70.0817 27.2968C70.0817 26.8692 69.9394 26.5129 69.6312 26.2516C69.3467 25.9665 68.9673 25.824 68.5643 25.824V25.824Z" fill="white"/>
<rect x="67.3076" y="30.0762" width="2.44216" height="9.7395" fill="white"/>
<path fill-rule="evenodd" clip-rule="evenodd" d="M76.199 29.8386C77.0762 29.8386 77.9061 30.2187 78.6411 30.8838H78.6648V30.0762H81.0596V38.913C81.0596 40.3858 80.6328 41.5735 79.7555 42.4525C78.9019 43.3314 77.7164 43.7827 76.2701 43.7827C75.1794 43.7827 74.2784 43.5452 73.5434 43.0701C72.8084 42.595 72.2631 42.0961 71.9074 41.5973L71.86 41.526L73.5197 39.9345C74.397 41.0984 75.0846 41.5498 76.2227 41.5498C76.9577 41.5498 77.5504 41.336 77.9772 40.9084C78.404 40.4571 78.6174 39.8394 78.6174 39.0318V38.7942C77.9535 39.3168 77.1474 39.5781 76.199 39.5781C74.8475 39.5781 73.7331 39.103 72.8558 38.2003C71.9785 37.2501 71.5517 36.0862 71.5517 34.7084C71.5517 33.3068 71.9785 32.1191 72.8558 31.2164C73.7331 30.3137 74.8475 29.8386 76.199 29.8386ZM76.3175 37.3452C77.0288 37.3452 77.5741 37.1076 78.0009 36.6325C78.404 36.1574 78.6411 35.516 78.6411 34.7321C78.6411 33.9482 78.4277 33.2831 78.0009 32.808C77.5741 32.3091 77.0288 32.0716 76.3175 32.0716C75.6299 32.0716 75.0846 32.3329 74.6578 32.808C74.231 33.2831 74.0176 33.9482 74.0176 34.7321C74.0176 35.516 74.231 36.1574 74.6578 36.6325C75.0609 37.1076 75.6062 37.3452 76.3175 37.3452Z" fill="white"/>
<rect x="83.1223" y="30.0762" width="2.44216" height="9.7395" fill="white"/>
<path fill-rule="evenodd" clip-rule="evenodd" d="M84.379 25.824C83.9522 25.824 83.5965 25.9665 83.312 26.2516C83.0275 26.5366 82.8615 26.8929 82.8615 27.2968C82.8615 27.7244 83.0038 28.0807 83.312 28.3657C83.5965 28.6508 83.9522 28.8171 84.379 28.8171C84.8058 28.8171 85.1614 28.6746 85.4459 28.3657C85.7305 28.0807 85.8964 27.7006 85.8964 27.2968C85.8964 26.8692 85.7542 26.5129 85.4459 26.2516C85.1614 25.9665 84.7821 25.824 84.379 25.824V25.824Z" fill="white"/>
<path fill-rule="evenodd" clip-rule="evenodd" d="M90.923 27.4631H88.5283V30.0999H87.1294V32.3329H88.5283V36.3712C88.5283 37.6302 88.7891 38.5329 89.287 39.0555C89.7849 39.5781 90.6622 39.8394 91.9188 39.8394C92.3219 39.8394 92.725 39.8157 93.1044 39.7919H93.2229V37.559L92.3931 37.6065C91.8003 37.6065 91.4209 37.5115 91.2313 37.2977C91.0416 37.0839 90.9467 36.6563 90.9467 36.0149V32.3091H93.2229V30.0762H90.9467V27.4631L90.923 27.4631Z" fill="white"/>
<rect x="104.651" y="25.9902" width="2.44216" height="13.8016" fill="white"/>
<path fill-rule="evenodd" clip-rule="evenodd" d="M131.776 36.3237C131.349 36.8226 130.898 37.2501 130.543 37.4639C130.211 37.6777 129.784 37.7965 129.286 37.7965C128.575 37.7965 127.982 37.5352 127.508 36.9888C127.034 36.4425 126.797 35.7536 126.797 34.9222C126.797 34.0907 127.034 33.4019 127.484 32.8792C127.958 32.3329 128.527 32.0716 129.239 32.0716C130.021 32.0716 130.851 32.5704 131.562 33.4019L133.175 31.8578C132.131 30.48 130.78 29.8386 129.168 29.8386C127.816 29.8386 126.654 30.3375 125.706 31.2877C124.758 32.2379 124.283 33.4731 124.283 34.9222C124.283 36.3712 124.758 37.5827 125.706 38.5567C126.654 39.5306 127.816 40.0057 129.168 40.0057C130.946 40.0057 132.369 39.2456 133.317 37.844L131.776 36.3237Z" fill="white"/>
<path fill-rule="evenodd" clip-rule="evenodd" d="M140.406 30.2662C140.975 30.5513 141.45 30.9551 141.805 31.4302C142.161 31.9291 142.422 32.4517 142.588 32.998C142.754 33.5681 142.848 34.162 142.848 34.8034L142.825 35.7061H136.352C136.399 36.3237 136.636 36.8226 137.039 37.1789C137.466 37.5827 138.012 37.7728 138.699 37.7728C139.15 37.7728 139.576 37.7015 139.932 37.5115C140.169 37.3927 140.406 37.2264 140.643 36.9888C140.691 36.9413 140.74 36.8938 140.789 36.8463C140.935 36.7038 141.082 36.5613 141.189 36.4187L142.777 37.9628L142.73 38.0341C141.734 39.3643 140.359 40.0295 138.723 40.0295C137.277 40.0295 136.067 39.5544 135.19 38.6279C134.289 37.6777 133.839 36.4662 133.839 34.9934C133.839 33.5444 134.265 32.3329 135.071 31.3352C135.901 30.3375 137.016 29.8386 138.391 29.8386C139.15 29.8386 139.814 29.9812 140.406 30.2662ZM136.476 33.7107C136.474 33.7186 136.472 33.7265 136.47 33.7344V33.7107H136.476ZM136.476 33.7107H140.24C140.193 33.2593 140.027 32.8792 139.742 32.5704C139.434 32.2379 138.984 32.0716 138.391 32.0716C137.869 32.0716 137.443 32.2379 137.111 32.5704C136.807 32.8741 136.596 33.2466 136.476 33.7107Z" fill="white"/>
<path fill-rule="evenodd" clip-rule="evenodd" d="M148.16 29.8623C149.44 29.8623 150.459 30.1711 151.194 30.8125C151.953 31.4539 152.333 32.3803 152.285 33.5443V39.8156H149.89V39.0079C149.108 39.6493 148.231 40.0294 147.306 40.0294C146.381 40.0294 145.599 39.7443 144.959 39.2217C144.318 38.6754 144.01 37.9152 144.01 37.0125C144.01 35.9911 144.39 35.1596 145.125 34.5895C145.86 34.0194 146.855 33.7344 148.065 33.7344C148.657 33.7344 149.25 33.8294 149.867 34.0194V33.5443C149.867 33.1167 149.724 32.7604 149.392 32.4991C149.061 32.2378 148.657 32.0953 148.136 32.0953C147.187 32.0953 146.476 32.4516 145.836 33.473L144.271 31.9765L144.247 31.9527C144.65 31.2401 145.267 30.7175 145.907 30.3849C146.595 30.0523 147.353 29.8623 148.16 29.8623ZM148.017 35.801C147.519 35.801 147.14 35.896 146.855 36.0861C146.595 36.2761 146.452 36.5374 146.452 36.8462C146.452 37.1551 146.571 37.3688 146.784 37.5589C146.998 37.7489 147.33 37.8439 147.756 37.8439C148.634 37.8439 149.345 37.6064 149.867 37.1075V36.1574C149.227 35.9198 148.61 35.801 148.017 35.801Z" fill="white"/>
<path fill-rule="evenodd" clip-rule="evenodd" d="M161.722 31.0025C161.034 30.2424 160.086 29.8623 158.877 29.8623C157.904 29.8623 157.122 30.1474 156.529 30.6937V30.0999H154.135V39.8394H156.577V34.447C156.577 33.7106 156.743 33.1167 157.098 32.7129C157.454 32.2853 157.904 32.0953 158.545 32.0953C159.09 32.0953 159.517 32.2853 159.825 32.6416C160.133 33.0217 160.299 33.5206 160.299 34.1619V39.7918H162.741V34.1619C162.741 32.8317 162.409 31.7627 161.722 31.0025Z" fill="white"/>
<path fill-rule="evenodd" clip-rule="evenodd" d="M98.5577 29.8623C99.8381 29.8623 100.858 30.1711 101.593 30.8125C102.328 31.4539 102.707 32.3803 102.683 33.5443V39.8156H100.289V39.0079C99.5061 39.6493 98.6288 40.0294 97.7041 40.0294C96.7794 40.0294 95.997 39.7443 95.3568 39.2217C94.7166 38.6754 94.4084 37.9152 94.4084 37.0125C94.4084 35.9911 94.7878 35.1596 95.5228 34.5895C96.2578 34.0194 97.2536 33.7344 98.4629 33.7344C99.0556 33.7344 99.6484 33.8294 100.265 34.0194V33.5443C100.265 33.1167 100.123 32.7604 99.7906 32.4991C99.4587 32.2378 99.0556 32.0953 98.534 32.0953C97.5856 32.0953 96.8743 32.4516 96.2341 33.473L94.6692 31.9765L94.6455 31.9527C95.0486 31.2401 95.6651 30.7175 96.3052 30.3849C96.9928 30.0523 97.7516 29.8623 98.5577 29.8623ZM98.4154 35.801C97.9175 35.801 97.5382 35.896 97.2536 36.0861C96.9691 36.2761 96.8506 36.5374 96.8506 36.8462C96.8506 37.1551 96.9691 37.3688 97.1825 37.5589C97.3959 37.7489 97.7279 37.8439 98.1546 37.8439C99.0319 37.8439 99.7432 37.6064 100.265 37.1075V36.1574C99.6247 35.9198 99.0082 35.801 98.4154 35.801Z" fill="white"/>
<path fill-rule="evenodd" clip-rule="evenodd" d="M108.848 32.8792C108.848 36.8225 112.049 40.0056 115.961 40.0056C119.873 40.0056 123.074 36.8225 123.074 32.8792C123.074 28.9358 119.873 25.7527 115.961 25.7527C112.025 25.7527 108.848 28.9358 108.848 32.8792ZM111.361 32.9029C111.361 30.3611 113.424 28.2945 115.961 28.2945C118.498 28.2945 120.561 30.3611 120.561 32.9029C120.561 35.4447 118.498 37.5114 115.961 37.5114C113.424 37.5114 111.361 35.4447 111.361 32.9029Z" fill="white"/>
<path opacity="0.65" d="M27.5852 91.2727H21.0739V100H22.1307V92.2102H26.5284V100H27.5852V91.2727ZM32.152 100.136C33.7884 100.136 34.9304 98.8239 34.9304 96.7443C34.9304 94.6818 33.7884 93.3693 32.135 93.3693C30.8566 93.3693 30.4645 94.1534 30.2429 94.4943H30.1236V93.4545H29.152V102.455H30.1577V98.9943H30.2429C30.4645 99.3523 30.8907 100.136 32.152 100.136ZM32.0157 99.233C30.8054 99.233 30.1407 98.2102 30.1407 96.7273C30.1407 95.2614 30.7884 94.2727 32.0157 94.2727C33.2941 94.2727 33.9248 95.3466 33.9248 96.7273C33.9248 98.125 33.277 99.233 32.0157 99.233ZM38.6951 100.136C40.4678 100.136 41.661 98.7898 41.661 96.7614C41.661 94.7159 40.4678 93.3693 38.6951 93.3693C36.9223 93.3693 35.7291 94.7159 35.7291 96.7614C35.7291 98.7898 36.9223 100.136 38.6951 100.136ZM38.6951 99.233C37.3485 99.233 36.7348 98.0739 36.7348 96.7614C36.7348 95.4489 37.3485 94.2727 38.6951 94.2727C40.0416 94.2727 40.6553 95.4489 40.6553 96.7614C40.6553 98.0739 40.0416 99.233 38.6951 99.233ZM46.3471 98.6364L44.0971 93.4545H42.7676V100H43.7732V94.8991L45.938 100H46.7562L48.921 94.9929V100H49.9266V93.4545H48.6312L46.3471 98.6364ZM53.9981 100.136C55.7708 100.136 56.964 98.7898 56.964 96.7614C56.964 94.7159 55.7708 93.3693 53.9981 93.3693C52.2253 93.3693 51.0322 94.7159 51.0322 96.7614C51.0322 98.7898 52.2253 100.136 53.9981 100.136ZM53.9981 99.233C52.6515 99.233 52.0378 98.0739 52.0378 96.7614C52.0378 95.4489 52.6515 94.2727 53.9981 94.2727C55.3447 94.2727 55.9583 95.4489 55.9583 96.7614C55.9583 98.0739 55.3447 99.233 53.9981 99.233ZM58.0706 100H59.0762V97.2386H59.9797L62.1274 100H63.4228L60.7467 96.608L63.3887 93.4545H62.0933L59.741 96.3011H59.0762V93.4545H58.0706V100ZM66.4769 100.136C68.2496 100.136 69.4428 98.7898 69.4428 96.7614C69.4428 94.7159 68.2496 93.3693 66.4769 93.3693C64.7041 93.3693 63.511 94.7159 63.511 96.7614C63.511 98.7898 64.7041 100.136 66.4769 100.136ZM66.4769 99.233C65.1303 99.233 64.5166 98.0739 64.5166 96.7614C64.5166 95.4489 65.1303 94.2727 66.4769 94.2727C67.8235 94.2727 68.4371 95.4489 68.4371 96.7614C68.4371 98.0739 67.8235 99.233 66.4769 99.233ZM69.8505 101.875H70.8562V100H75.6971V101.875H76.7028V99.0625H75.6971V93.4545H71.538L71.3164 96.0455C71.1587 97.8778 70.9244 98.5085 70.396 99.0625H69.8505V101.875ZM71.538 99.0625C71.9982 98.4574 72.1644 97.4134 72.305 96.0455L72.4755 94.392H74.6914V99.0625H71.538ZM20.9205 112H21.9261V106.392H25.0625V112H26.0682V105.455H20.9205V112ZM30.4763 112.136C32.1126 112.136 33.2547 110.824 33.2547 108.744C33.2547 106.682 32.1126 105.369 30.4592 105.369C29.1808 105.369 28.7888 106.153 28.5672 106.494H28.4478V105.455H27.4763V114.455H28.4819V110.994H28.5672C28.7888 111.352 29.2149 112.136 30.4763 112.136ZM30.3399 111.233C29.1297 111.233 28.4649 110.21 28.4649 108.727C28.4649 107.261 29.1126 106.273 30.3399 106.273C31.6183 106.273 32.249 107.347 32.249 108.727C32.249 110.125 31.6013 111.233 30.3399 111.233ZM35.3659 110.517V105.455H34.3602V112H35.5363L38.6727 106.938V112H39.6784V105.455H38.5193L35.3659 110.517ZM47.0382 112.136C48.6746 112.136 49.8166 110.824 49.8166 108.744C49.8166 106.682 48.6746 105.369 47.0212 105.369C45.7427 105.369 45.3507 106.153 45.1291 106.494H45.0098V105.455H44.0382V114.455H45.0439V110.994H45.1291C45.3507 111.352 45.7768 112.136 47.0382 112.136ZM46.9018 111.233C45.6916 111.233 45.0268 110.21 45.0268 108.727C45.0268 107.261 45.6746 106.273 46.9018 106.273C48.1802 106.273 48.8109 107.347 48.8109 108.727C48.8109 110.125 48.1632 111.233 46.9018 111.233ZM53.6664 112.136C54.996 112.136 55.9676 111.472 56.2744 110.483L55.3028 110.21C55.0471 110.892 54.4548 111.233 53.6664 111.233C52.486 111.233 51.6721 110.47 51.6253 109.068H56.3767V108.642C56.3767 106.205 54.9278 105.369 53.5642 105.369C51.7914 105.369 50.6153 106.767 50.6153 108.778C50.6153 110.79 51.7744 112.136 53.6664 112.136ZM51.6253 108.199C51.6934 107.18 52.4136 106.273 53.5642 106.273C54.6551 106.273 55.3539 107.091 55.3539 108.199H51.6253ZM61.5177 105.455H57.4779V112H58.4836V106.392H61.5177V105.455ZM63.5629 110.517V105.455H62.5572V112H63.7333L66.8697 106.938V112H67.8754V105.455H66.7163L63.5629 110.517ZM71.9479 112.136C73.3967 112.136 74.3513 111.25 74.5217 110.091H73.516C73.3285 110.807 72.7319 111.233 71.9479 111.233C70.7547 111.233 69.9876 110.244 69.9876 108.727C69.9876 107.244 70.7717 106.273 71.9479 106.273C72.8342 106.273 73.3626 106.818 73.516 107.415H74.5217C74.3513 106.188 73.3115 105.369 71.9308 105.369C70.1581 105.369 68.9819 106.767 68.9819 108.761C68.9819 110.722 70.1069 112.136 71.9479 112.136ZM75.0477 106.392H77.2125V112H78.2181V106.392H80.3659V105.455H75.0477V106.392ZM84.4043 112.136C86.0406 112.136 87.1827 110.824 87.1827 108.744C87.1827 106.682 86.0406 105.369 84.3872 105.369C83.1088 105.369 82.7168 106.153 82.4952 106.494H82.3759V105.455H81.4043V114.455H82.41V110.994H82.4952C82.7168 111.352 83.1429 112.136 84.4043 112.136ZM84.2679 111.233C83.0577 111.233 82.3929 110.21 82.3929 108.727C82.3929 107.261 83.0406 106.273 84.2679 106.273C85.5463 106.273 86.177 107.347 86.177 108.727C86.177 110.125 85.5293 111.233 84.2679 111.233ZM90.2143 112.153C91.3564 112.153 91.953 111.54 92.1575 111.114H92.2087V112H93.2143V107.688C93.2143 105.608 91.6291 105.369 90.7939 105.369C89.8052 105.369 88.6802 105.71 88.1689 106.903L89.1234 107.244C89.345 106.767 89.8692 106.256 90.828 106.256C91.7612 106.256 92.2087 106.754 92.2087 107.602C92.2087 108.088 91.7143 108.062 90.5212 108.216C89.3067 108.374 87.9814 108.642 87.9814 110.142C87.9814 111.42 88.97 112.153 90.2143 112.153ZM90.3677 111.25C89.5666 111.25 88.9871 110.892 88.9871 110.193C88.9871 109.426 89.6859 109.188 90.47 109.085C90.8962 109.034 92.0382 108.915 92.2087 108.71V109.631C92.2087 110.449 91.5609 111.25 90.3677 111.25ZM99.7691 105.455H98.7634V111.062H95.627V105.455H94.6214V112H99.7691V114.114H100.775V111.062H99.7691V105.455ZM102.816 110.517V105.455H101.81V112H102.986L106.122 106.938V112H107.128V105.455H105.969L102.816 110.517ZM109.547 110.517V105.455H108.542V112H109.718L112.854 106.938V112H113.86V105.455H112.701L109.547 110.517Z" fill="white"/>
<path d="M21.2642 137H24.3395V131.645H26.6832L29.4602 137H32.8551L29.7585 131.148C31.3707 130.416 32.3153 128.982 32.3153 127.092C32.3153 124.237 30.3906 122.455 27.0739 122.455H21.2642V137ZM24.3395 129.337V124.969H26.8324C28.3097 124.969 29.1335 125.793 29.1335 127.156C29.1335 128.491 28.331 129.337 26.7543 129.337H24.3395ZM37.5604 137.206C39.1726 137.206 40.2166 136.503 40.7493 135.487H40.8345V137H43.7038V129.642C43.7038 127.043 41.4808 125.949 39.1229 125.949C36.4382 125.949 34.7408 127.199 34.3217 129.188L37.12 129.415C37.326 128.69 37.9723 128.158 39.0589 128.158C40.103 128.158 40.6712 128.669 40.6783 129.585C40.6854 130.303 39.9325 130.409 38.0362 130.594C35.8771 130.793 33.9382 131.517 33.9382 133.953C33.9382 136.112 35.4794 137.206 37.5604 137.206ZM38.4268 135.118C37.4964 135.118 36.8288 134.685 36.8288 133.854C36.8288 133.001 37.532 132.582 38.5973 132.433C39.2578 132.341 40.3374 132.185 40.6996 131.943V133.101C40.6996 134.244 39.755 135.118 38.4268 135.118ZM56.2855 137V122.455H53.2599V127.923H53.1676C52.7628 127.036 51.8892 125.949 50.0639 125.949C47.6705 125.949 45.6463 127.81 45.6463 131.56C45.6463 135.21 47.5852 137.178 50.071 137.178C51.8324 137.178 52.7486 136.162 53.1676 135.253H53.3026V137H56.2855ZM53.3239 131.545C53.3239 133.491 52.4858 134.77 51.0298 134.77C49.5455 134.77 48.7358 133.449 48.7358 131.545C48.7358 129.656 49.5312 128.357 51.0298 128.357C52.5 128.357 53.3239 129.599 53.3239 131.545ZM58.7074 137H61.733V126.091H58.7074V137ZM60.2273 124.798C61.108 124.798 61.8679 124.131 61.8679 123.264C61.8679 122.405 61.108 121.737 60.2273 121.737C59.3537 121.737 58.5938 122.405 58.5938 123.264C58.5938 124.131 59.3537 124.798 60.2273 124.798ZM69.1211 137.213C72.4308 137.213 74.4904 134.947 74.4904 131.588C74.4904 128.207 72.4308 125.949 69.1211 125.949C65.8043 125.949 63.7518 128.207 63.7518 131.588C63.7518 134.947 65.8043 137.213 69.1211 137.213ZM69.1353 134.869C67.6083 134.869 66.8271 133.47 66.8271 131.567C66.8271 129.663 67.6083 128.257 69.1353 128.257C70.6339 128.257 71.4151 129.663 71.4151 131.567C71.4151 133.47 70.6339 134.869 69.1353 134.869ZM84.8313 137H75.2788V139.294H84.8313V137ZM84.4016 124.99H88.8548V137H91.8945V124.99H96.3477V122.455H84.4016V124.99Z" fill="white"/>
<path opacity="0.65" d="M197.517 91.2727H191.005V100H192.062V92.2102H196.46V100H197.517V91.2727ZM201.742 100.136C203.515 100.136 204.708 98.7898 204.708 96.7614C204.708 94.7159 203.515 93.3693 201.742 93.3693C199.97 93.3693 198.777 94.7159 198.777 96.7614C198.777 98.7898 199.97 100.136 201.742 100.136ZM201.742 99.233C200.396 99.233 199.782 98.0739 199.782 96.7614C199.782 95.4489 200.396 94.2727 201.742 94.2727C203.089 94.2727 203.703 95.4489 203.703 96.7614C203.703 98.0739 203.089 99.233 201.742 99.233ZM205.815 100H206.821V94.392H209.957V100H210.963V93.4545H205.815V100ZM215.03 100.136C216.803 100.136 217.996 98.7898 217.996 96.7614C217.996 94.7159 216.803 93.3693 215.03 93.3693C213.257 93.3693 212.064 94.7159 212.064 96.7614C212.064 98.7898 213.257 100.136 215.03 100.136ZM215.03 99.233C213.683 99.233 213.07 98.0739 213.07 96.7614C213.07 95.4489 213.683 94.2727 215.03 94.2727C216.376 94.2727 216.99 95.4489 216.99 96.7614C216.99 98.0739 216.376 99.233 215.03 99.233ZM218.523 100H218.864C220.313 100 220.73 98.875 220.824 96.7273L220.926 94.392H223.33V100H224.335V93.4545H219.972L219.852 96.3523C219.767 98.5511 219.546 99.0625 218.761 99.0625H218.523V100ZM226.758 93.4545H225.752V100H226.758V97.2045H229.894V100H230.9V93.4545H229.894V96.267H226.758V93.4545ZM236.245 100H237.2V93.4545H234.507C233.096 93.4545 232.24 94.1918 232.24 95.3977C232.24 96.2969 232.691 96.9361 233.48 97.2045L231.882 100H232.973L234.49 97.3409H236.245V100ZM236.245 96.4034H234.387C233.676 96.4034 233.245 96.0241 233.245 95.3977C233.245 94.7628 233.723 94.375 234.507 94.375H236.245V96.4034ZM241.362 100.136C242.691 100.136 243.663 99.4716 243.97 98.483L242.998 98.2102C242.742 98.892 242.15 99.233 241.362 99.233C240.181 99.233 239.367 98.4702 239.321 97.0682H244.072V96.642C244.072 94.2045 242.623 93.3693 241.259 93.3693C239.487 93.3693 238.311 94.767 238.311 96.7784C238.311 98.7898 239.47 100.136 241.362 100.136ZM239.321 96.1989C239.389 95.1804 240.109 94.2727 241.259 94.2727C242.35 94.2727 243.049 95.0909 243.049 96.1989H239.321ZM244.564 94.392H246.729V100H247.734V94.392H249.882V93.4545H244.564V94.392ZM194.273 112.153C195.415 112.153 196.012 111.54 196.216 111.114H196.267V112H197.273V107.688C197.273 105.608 195.688 105.369 194.852 105.369C193.864 105.369 192.739 105.71 192.227 106.903L193.182 107.244C193.404 106.767 193.928 106.256 194.887 106.256C195.82 106.256 196.267 106.754 196.267 107.602C196.267 108.088 195.773 108.062 194.58 108.216C193.365 108.374 192.04 108.642 192.04 110.142C192.04 111.42 193.029 112.153 194.273 112.153ZM194.426 111.25C193.625 111.25 193.046 110.892 193.046 110.193C193.046 109.426 193.745 109.188 194.529 109.085C194.955 109.034 196.097 108.915 196.267 108.71V109.631C196.267 110.449 195.62 111.25 194.426 111.25ZM198.68 112H199.686V109.239H200.589L202.737 112H204.032L201.356 108.608L203.998 105.455H202.703L200.35 108.301H199.686V105.455H198.68V112ZM204.697 112H205.702V109.239H206.606L208.753 112H210.049L207.373 108.608L210.015 105.455H208.719L206.367 108.301H205.702V105.455H204.697V112ZM212.64 112.153C213.782 112.153 214.378 111.54 214.583 111.114H214.634V112H215.64V107.688C215.64 105.608 214.054 105.369 213.219 105.369C212.23 105.369 211.105 105.71 210.594 106.903L211.549 107.244C211.77 106.767 212.294 106.256 213.253 106.256C214.186 106.256 214.634 106.754 214.634 107.602C214.634 108.088 214.14 108.062 212.946 108.216C211.732 108.374 210.407 108.642 210.407 110.142C210.407 111.42 211.395 112.153 212.64 112.153ZM212.793 111.25C211.992 111.25 211.412 110.892 211.412 110.193C211.412 109.426 212.111 109.188 212.895 109.085C213.321 109.034 214.463 108.915 214.634 108.71V109.631C214.634 110.449 213.986 111.25 212.793 111.25ZM217.426 114.54C218.346 114.54 218.977 114.062 219.352 113.057L222.164 105.455H221.074L219.267 110.67H219.199L217.392 105.455H216.301L218.738 112.051L218.5 112.648C218.125 113.619 217.682 113.722 216.949 113.534L216.693 114.42C216.795 114.472 217.085 114.54 217.426 114.54ZM224.069 105.455H223.063V112H224.069V109.205H227.205V112H228.211V105.455H227.205V108.267H224.069V105.455ZM228.728 106.392H230.893V112H231.899V106.392H234.047V105.455H228.728V106.392ZM239.037 105.455H238.032V112H239.037V109.205H242.174V112H243.179V105.455H242.174V108.267H239.037V105.455ZM246.513 112.153C247.655 112.153 248.252 111.54 248.457 111.114H248.508V112H249.513V107.688C249.513 105.608 247.928 105.369 247.093 105.369C246.104 105.369 244.979 105.71 244.468 106.903L245.423 107.244C245.644 106.767 246.168 106.256 247.127 106.256C248.06 106.256 248.508 106.754 248.508 107.602C248.508 108.088 248.013 108.062 246.82 108.216C245.606 108.374 244.28 108.642 244.28 110.142C244.28 111.42 245.269 112.153 246.513 112.153ZM246.667 111.25C245.866 111.25 245.286 110.892 245.286 110.193C245.286 109.426 245.985 109.188 246.769 109.085C247.195 109.034 248.337 108.915 248.508 108.71V109.631C248.508 110.449 247.86 111.25 246.667 111.25Z" fill="white"/>
<path d="M219.136 138.818H220.045V137.199C223.355 137.078 225.294 135.409 225.301 132.845C225.294 130.423 223.469 129.138 220.94 128.57L220.045 128.357V124.841C221.295 124.947 222.048 125.594 222.155 126.638H225.102C225.06 124.145 223.085 122.391 220.045 122.263V120.636H219.136V122.277C216.232 122.469 214.165 124.173 214.179 126.659C214.172 128.804 215.685 130.033 218.142 130.622L219.136 130.871V134.607C217.794 134.464 216.864 133.74 216.771 132.433H213.795C213.866 135.423 215.905 137.043 219.136 137.192V138.818ZM220.045 134.607V131.098C221.43 131.467 222.19 131.929 222.197 132.838C222.19 133.804 221.359 134.486 220.045 134.607ZM219.136 128.129C218.107 127.831 217.311 127.355 217.332 126.453C217.332 125.629 217.972 125.004 219.136 124.855V128.129ZM233.257 122.455H230.296C230.26 123.342 229.01 124.855 227.142 124.855V127.298C228.748 127.298 229.792 126.702 230.104 126.219H230.239V137H233.257V122.455ZM242.222 137.32C245.823 137.32 247.862 134.635 247.869 129.763C247.862 124.912 245.823 122.256 242.222 122.256C238.614 122.256 236.576 124.926 236.576 129.777C236.562 134.642 238.614 137.312 242.222 137.32ZM242.222 134.784C240.447 134.784 239.488 133.03 239.502 129.777C239.502 126.531 240.447 124.763 242.222 124.763C243.977 124.763 244.928 126.531 244.942 129.777C244.95 133.03 243.991 134.784 242.222 134.784Z" fill="white"/>
<defs>
<filter id="filter0_i" x="136" y="105" width="17.5" height="35" filterUnits="userSpaceOnUse" color-interpolation-filters="sRGB">
<feFlood flood-opacity="0" result="BackgroundImageFix"/>
<feBlend mode="normal" in="SourceGraphic" in2="BackgroundImageFix" result="shape"/>
<feColorMatrix in="SourceAlpha" type="matrix" values="0 0 0 0 0 0 0 0 0 0 0 0 0 0 0 0 0 0 127 0" result="hardAlpha"/>
<feOffset dx="-2"/>
<feComposite in2="hardAlpha" operator="arithmetic" k2="-1" k3="1"/>
<feColorMatrix type="matrix" values="0 0 0 0 0.65098 0 0 0 0 0.823529 0 0 0 0 1 0 0 0 1 0"/>
<feBlend mode="normal" in2="shape" result="effect1_innerShadow"/>
</filter>
</defs>
</svg>
