<svg width="123" height="50" viewBox="0 0 123 50" fill="none" xmlns="http://www.w3.org/2000/svg">
<path d="M0 36.8872H3.78182V31.0878H6.96099C11.0747 31.0878 13.4765 28.6249 13.4678 25.0614C13.4765 21.4979 11.1184 19 7.05706 19H0V36.8872ZM3.78182 28.0571V22.0918H6.33214C8.51564 22.0918 9.58119 23.2971 9.57245 25.0614C9.58119 26.8519 8.51564 28.0571 6.34961 28.0571H3.78182Z" fill="#FFFFFF"/>
<path d="M17.9451 37.1405C19.9277 37.1405 21.2116 36.2758 21.8667 35.0269H21.9715V36.8872H25.5V27.8388C25.5 24.6422 22.7663 23.2971 19.8666 23.2971C16.5651 23.2971 14.4777 24.8343 13.9624 27.2798L17.4036 27.5593C17.6569 26.6684 18.4517 26.0134 19.788 26.0134C21.0719 26.0134 21.7706 26.6422 21.7793 27.7689C21.7881 28.6511 20.8623 28.7821 18.5303 29.0092C15.8751 29.2537 13.4908 30.1446 13.4908 33.1403C13.4908 35.7955 15.386 37.1405 17.9451 37.1405ZM19.0106 34.5727C17.8665 34.5727 17.0455 34.0399 17.0455 33.0181C17.0455 31.97 17.9102 31.4547 19.2203 31.2713C20.0325 31.1577 21.3601 30.9656 21.8055 30.6686V32.0922C21.8055 33.4984 20.6439 34.5727 19.0106 34.5727Z" fill="#FFFFFF"/>
<path d="M26.5743 40.8175H30.2076V36.8872H38.4089V40.8175H41.9549V33.9351H39.8762V23.4718H29.5875L29.2382 27.8563C29.0286 30.4939 28.7753 33.1927 27.6049 33.9351H26.5743V40.8175ZM31.3081 33.9351C32.1029 32.6862 32.4086 30.721 32.6095 27.8563L32.7492 26.3366H36.3651V33.9351H31.3081Z" fill="#FFFFFF"/>
<path d="M46.6085 31.9787V23.4718H43.0537V36.8872H46.7482L51.5606 28.3541V36.8872H55.1066V23.4718H51.4384L46.6085 31.9787Z" fill="#FFFFFF"/>
<path d="M63.0813 37.1492C67.1514 37.1492 69.6842 34.3631 69.6842 30.2319C69.6842 26.0745 67.1514 23.2971 63.0813 23.2971C59.0113 23.2971 56.4784 26.0745 56.4784 30.2319C56.4784 34.3631 59.0113 37.1492 63.0813 37.1492ZM63.0988 34.267C61.221 34.267 60.2603 32.5464 60.2603 30.2057C60.2603 27.865 61.221 26.1357 63.0988 26.1357C64.9417 26.1357 65.9024 27.865 65.9024 30.2057C65.9024 32.5464 64.9417 34.267 63.0988 34.267Z" fill="#FFFFFF"/>
<path d="M93 50C104.046 50 113 41.0457 113 30C113 18.9543 104.046 10 93 10C81.9543 10 73 18.9543 73 30C73 41.0457 81.9543 50 93 50Z" fill="#4FBCF2"/>
<rect x="83" y="21" width="20" height="5" fill="#F8F8F8"/>
<rect x="90" y="26" width="6" height="15" fill="#F8F8F8"/>
<rect x="90" y="26" width="6" height="3" fill="#A3DAF5"/>
<path fill-rule="evenodd" clip-rule="evenodd" d="M103.553 0.000203561C114.158 0.287972 122.712 8.82887 123 19.4471C123.008 19.7496 122.767 20 122.464 20H122.107C121.817 20 121.579 19.7703 121.571 19.481C121.301 9.63928 113.377 1.69896 103.519 1.42887C103.23 1.42092 103 1.18279 103 0.893419V0.536008C103 0.233418 103.25 -0.00801073 103.553 0.000203561ZM103.555 6.43967C110.614 6.72298 116.277 12.3854 116.56 19.4449C116.572 19.7481 116.328 20 116.025 20H115.667C115.379 20 115.144 19.7717 115.132 19.4836C114.869 13.1839 109.817 8.13088 103.516 7.86789C103.228 7.85588 103 7.62101 103 7.33267V6.9753C103 6.67186 103.252 6.42749 103.555 6.43967Z" fill="#98A3B3"/>
</svg>
