<svg width="123" height="50" viewBox="0 0 123 50" fill="none" xmlns="http://www.w3.org/2000/svg">
<path d="M1.68561 39.6667H5.78598V32.5265H8.91098L12.6136 39.6667H17.1402L13.0114 31.8636C15.161 30.8883 16.4205 28.9754 16.4205 26.4564C16.4205 22.6496 13.8542 20.2727 9.43182 20.2727H1.68561V39.6667ZM5.78598 29.4489V23.625H9.10985C11.0795 23.625 12.178 24.7235 12.178 26.5417C12.178 28.322 11.108 29.4489 9.00568 29.4489H5.78598ZM22.6538 39.9413C24.8034 39.9413 26.1955 39.0038 26.9057 37.6496H27.0194V39.6667H30.8451V29.8561C30.8451 26.3902 27.8811 24.9318 24.7372 24.9318C21.1576 24.9318 18.8944 26.5985 18.3356 29.25L22.0667 29.553C22.3413 28.5871 23.2031 27.8769 24.6519 27.8769C26.044 27.8769 26.8016 28.5587 26.811 29.7803C26.8205 30.7367 25.8167 30.8788 23.2883 31.125C20.4095 31.3902 17.8243 32.3561 17.8243 35.6042C17.8243 38.483 19.8792 39.9413 22.6538 39.9413ZM23.8091 37.1572C22.5686 37.1572 21.6784 36.5795 21.6784 35.4716C21.6784 34.3352 22.6159 33.7765 24.0364 33.5777C24.9171 33.4545 26.3565 33.2462 26.8394 32.9242V34.4678C26.8394 35.9924 25.58 37.1572 23.8091 37.1572ZM46.8607 39.6667V20.2727H42.8266V27.5644H42.7035C42.1637 26.3807 40.9989 24.9318 38.5652 24.9318C35.3739 24.9318 32.6751 27.4129 32.6751 32.4129C32.6751 37.2803 35.2603 39.9034 38.5747 39.9034C40.9232 39.9034 42.1448 38.5492 42.7035 37.3371H42.8834V39.6667H46.8607ZM42.9118 32.3939C42.9118 34.9886 41.7944 36.6932 39.8531 36.6932C37.8739 36.6932 36.7944 34.9318 36.7944 32.3939C36.7944 29.875 37.855 28.142 39.8531 28.142C41.8133 28.142 42.9118 29.7992 42.9118 32.3939ZM49.3298 39.6667H53.3639V25.1212H49.3298V39.6667ZM51.3564 23.3977C52.5306 23.3977 53.5439 22.5076 53.5439 21.3523C53.5439 20.2064 52.5306 19.3163 51.3564 19.3163C50.1916 19.3163 49.1783 20.2064 49.1783 21.3523C49.1783 22.5076 50.1916 23.3977 51.3564 23.3977ZM62.4548 39.9508C66.8677 39.9508 69.6139 36.9299 69.6139 32.4508C69.6139 27.9432 66.8677 24.9318 62.4548 24.9318C58.0324 24.9318 55.2957 27.9432 55.2957 32.4508C55.2957 36.9299 58.0324 39.9508 62.4548 39.9508ZM62.4737 36.8258C60.4377 36.8258 59.3961 34.9602 59.3961 32.4223C59.3961 29.8845 60.4377 28.0095 62.4737 28.0095C64.4718 28.0095 65.5135 29.8845 65.5135 32.4223C65.5135 34.9602 64.4718 36.8258 62.4737 36.8258Z" fill="#1B1B1B"/>
<path d="M93 50C104.046 50 113 41.0457 113 30C113 18.9543 104.046 10 93 10C81.9543 10 73 18.9543 73 30C73 41.0457 81.9543 50 93 50Z" fill="#4FBCF2"/>
<rect x="83" y="21" width="20" height="5" fill="#F8F8F8"/>
<rect x="90" y="26" width="6" height="15" fill="#F8F8F8"/>
<rect opacity="0.5" x="90" y="26" width="6" height="3" fill="#4FBCF2"/>
<path fill-rule="evenodd" clip-rule="evenodd" d="M103.553 0.000203561C114.158 0.287972 122.712 8.82887 123 19.4471C123.008 19.7496 122.767 20 122.464 20H122.107C121.817 20 121.579 19.7703 121.571 19.481C121.301 9.63928 113.377 1.69896 103.519 1.42887C103.23 1.42092 103 1.18279 103 0.893419V0.536008C103 0.233418 103.25 -0.00801073 103.553 0.000203561ZM103.555 6.43967C110.614 6.72298 116.277 12.3854 116.56 19.4449C116.572 19.7481 116.328 20 116.025 20H115.667C115.379 20 115.144 19.7717 115.132 19.4836C114.869 13.1839 109.817 8.13088 103.516 7.86789C103.228 7.85588 103 7.62101 103 7.33267V6.9753C103 6.67186 103.252 6.42749 103.555 6.43967Z" fill="#98A3B3"/>
</svg>
