<svg width="19" height="8" viewBox="0 0 19 8" fill="none" xmlns="http://www.w3.org/2000/svg">
<path fill-rule="evenodd" clip-rule="evenodd" d="M18.8931 4.45773C19.0391 4.305 19.0348 4.05677 18.8848 3.9082C13.6217 -1.30606 5.37186 -1.2994 0.115184 3.90818C-0.034784 4.05675 -0.0391141 4.305 0.106912 4.45773L0.279394 4.63813C0.419043 4.7842 0.644826 4.78843 0.788266 4.64643C5.67576 -0.192868 13.3319 -0.184883 18.2117 4.64645C18.3552 4.78845 18.5809 4.78422 18.7206 4.63815L18.8931 4.45773ZM15.7856 7.70798C15.932 7.5548 15.9283 7.30432 15.7761 7.15742C12.2326 3.73717 6.76688 3.73766 3.22385 7.15741C3.07164 7.30431 3.068 7.55481 3.21444 7.70797L3.3869 7.88835C3.52605 8.0339 3.74957 8.03721 3.89439 7.89786C7.06191 4.85036 11.9385 4.85084 15.1056 7.89787C15.2504 8.03722 15.474 8.03389 15.6131 7.88837L15.7856 7.70798Z" fill="#6BBCED"/>
</svg>
