<svg width="142" height="68" viewBox="0 0 142 68" xmlns="http://www.w3.org/2000/svg" xmlns:xlink="http://www.w3.org/1999/xlink"><title>rt-header-logo</title><defs><path id="a" d="M6.5 3.2l-6 44.3 48-2.6L40.8.6 6.5 3.2z"/><path id="c" d="M18 .5L.5 49.8l49.7-9L42.4.6H18z"/><linearGradient x1="50%" y1="28.7%" x2="50%" y2="100%" id="e"><stop stop-color="#5EB0EE" offset="0%"/><stop stop-color="#1F89E4" offset="100%"/></linearGradient></defs><g fill="none" fill-rule="evenodd"><path d="M19.7 25.2l1.6-.2c2 0 3 1 3 2.5 0 1.8-1.2 2.8-3.3 2.8h-1.3v-5zm-4 14.4h4v-6.3H21c2.3 0 4.4-.5 5.7-1.7 1-1 1.6-2.4 1.6-4.2 0-1.7-.7-3.2-2-4-1-1-2.8-1.5-5.2-1.5-2.4 0-4 0-5.3.3v17.3zM37.3 35v.6a2.2 2.2 0 0 1-2 1.5c-1 0-1.6-.4-1.6-1.4 0-1.5 1.5-2 3.6-2V35zm3.8-3c0-3-1.2-5.4-5.4-5.4-2.4 0-4.2.6-5 1l.8 2.7c.7-.5 2-1 3.5-1 1.8 0 2.2 1 2.2 1.7-4.5 0-7.5 1.7-7.5 5a4 4 0 0 0 4 4c1.6 0 3-.6 3.7-1.6l.4 1.2h3.6c-.2-.7-.3-1.8-.3-3V32zm8.3-2.2H52v6.8h-4l.8-2c.3-1 .5-2.3.5-3.3v-1.5zm-3.5-3V30c0 1.4-.2 2.7-.6 4.2-.2 1-.7 1.8-1.3 2.6h-1.2v7h3l.3-4.2h8v4h3.2l.2-6.8H56v-10H45.8zm13.4 0v12.8h5a273 273 0 0 0 2.5-6c.5-1 .8-2 1.3-3.4V39.6h3.8V27h-5l-2.3 5.3c-.6 1.2-1 2-1.5 3.6h-.2l.2-5.3V27h-3.7zm21.4 10.3C79 37 78 35.6 78 33.3c0-1.8.8-3.8 2.6-3.8s2.5 2 2.5 3.8c0 2.3-1 4-2.3 4zm0 3c3.3 0 6.6-2.2 6.6-7 0-3.8-2.5-6.4-6.4-6.4-4.2 0-7 2.6-7 6.7 0 4.3 3 6.6 6.7 6.6z" fill="#707070"/><g transform="translate(108 -17)"><mask id="b" fill="#fff"><use xlink:href="#a"/></mask><use xlink:href="#a"/><circle stroke="#C6C6C6" stroke-width="3" mask="url(#b)" cx=".5" cy="47.5" r="28.5"/></g><g transform="translate(108 -19)"><mask id="d" fill="#fff"><use xlink:href="#c"/></mask><use xlink:href="#c"/><circle stroke="#D7D7D7" stroke-width="3" mask="url(#d)" cx=".5" cy="49.5" r="22.5"/></g><g transform="translate(91 13)"><circle fill="url(#e)" cx="17.5" cy="17.5" r="17.5"/><path d="M8.3 9H27v5h-7v14h-5V14H8.4V9z" fill="#4F9CD6"/><path d="M19 13h7v-3H9v3h7v14h3V13z" fill="#FFF"/></g></g></svg>