<svg><defs><g id="twitter-icon"><path fill="currentColor" fill="currentColor" d="M15.969,3.058c-0.586,0.26-1.217,0.436-1.878,0.515c0.675-0.405,1.194-1.045,1.438-1.809c-0.632,0.375-1.332,0.647-2.076,0.793c-0.596-0.636-1.446-1.033-2.387-1.033c-1.806,0-3.27,1.464-3.27,3.27 c0,0.256,0.029,0.506,0.085,0.745C5.163,5.404,2.753,4.102,1.14,2.124C0.859,2.607,0.698,3.168,0.698,3.767 c0,1.134,0.577,2.135,1.455,2.722C1.616,6.472,1.112,6.325,0.671,6.08c0,0.014,0,0.027,0,0.041c0,1.584,1.127,2.906,2.623,3.206 C3.02,9.402,2.731,9.442,2.433,9.442c-0.211,0-0.416-0.021-0.615-0.059c0.416,1.299,1.624,2.245,3.055,2.271 c-1.119,0.877-2.529,1.4-4.061,1.4c-0.264,0-0.524-0.015-0.78-0.046c1.447,0.928,3.166,1.469,5.013,1.469 c6.015,0,9.304-4.983,9.304-9.304c0-0.142-0.003-0.283-0.009-0.423C14.976,4.29,15.531,3.714,15.969,3.058z"></path></g><g id="facebook-icon"><path fill="currentColor" d="M15.117 0H.883C.395 0 0 .395 0 .883v14.234c0 .488.395.883.883.883h7.663V9.804H6.46V7.39h2.086V5.607c0-2.066 1.262-3.19 3.106-3.19.883 0 1.642.064 1.863.094v2.16h-1.28c-1 0-1.195.48-1.195 1.18v1.54h2.39l-.31 2.42h-2.08V16h4.077c.488 0 .883-.395.883-.883V.883C16 .395 15.605 0 15.117 0z"></path></g><g id="vk-icon"><path fill="currentColor" d="M7.828 12.526h.957s.288-.032.436-.19c.14-.147.14-.42.14-.42s-.02-1.284.58-1.473c.59-.187 1.34 1.24 2.14 1.788.61.42 1.07.33 1.07.33l2.14-.03s1.12-.07.59-.95c-.04-.07-.3-.65-1.58-1.84-1.34-1.24-1.16-1.04.45-3.19.98-1.31 1.38-2.11 1.25-2.45-.11-.32-.84-.24-.84-.24l-2.4.02s-.18-.02-.31.06-.21.26-.21.26-.38 1.02-.89 1.88C10.27 7.9 9.84 8 9.67 7.88c-.403-.26-.3-1.053-.3-1.62 0-1.76.27-2.5-.52-2.69-.26-.06-.454-.1-1.123-.11-.86-.01-1.585.006-1.996.207-.27.135-.48.434-.36.45.16.02.52.098.71.358.25.337.24 1.09.24 1.09s.14 2.077-.33 2.335c-.33.174-.77-.187-1.73-1.837-.49-.84-.86-1.78-.86-1.78s-.07-.17-.2-.27c-.15-.11-.37-.15-.37-.15l-2.29.02s-.34.01-.46.16c-.11.13-.01.41-.01.41s1.79 4.19 3.82 6.3c1.86 1.935 3.97 1.81 3.97 1.81z"></path></g></defs></svg>