<svg width="140" height="140" viewBox="0 0 140 140" fill="none" xmlns="http://www.w3.org/2000/svg">
<g clip-path="url(#clip0_354_1134)">
<path fill-rule="evenodd" clip-rule="evenodd" d="M106.045 27.6273L114.558 12.8823C116.237 9.9739 115.241 6.25498 112.332 4.57583C109.424 2.89669 105.705 3.89317 104.026 6.80154L95.5127 21.5465C93.8335 24.4549 94.83 28.1738 97.7384 29.853C100.647 31.5321 104.366 30.5356 106.045 27.6273ZM113.548 2.46941C109.477 0.118598 104.27 1.51367 101.919 5.58539L93.4062 20.3304C91.0554 24.4021 92.4505 29.6086 96.5222 31.9594C100.594 34.3102 105.8 32.9151 108.151 28.8434L116.664 14.0984C119.015 10.0267 117.62 4.82021 113.548 2.46941Z" fill="url(#paint0_linear_354_1134)"/>
<g clip-path="url(#clip1_354_1134)">
<rect x="95.0317" y="5.82178" width="29.1875" height="26.7552" rx="7.29688" transform="rotate(30 95.0317 5.82178)" fill="#D38816"/>
<g filter="url(#filter0_f_354_1134)">
<ellipse cx="99.4019" cy="23.7906" rx="10.3373" ry="13.3776" transform="rotate(30 99.4019 23.7906)" fill="#FFD953"/>
</g>
<g filter="url(#filter1_f_354_1134)">
<ellipse cx="95.1892" cy="21.3585" rx="10.3373" ry="13.3776" transform="rotate(30 95.1892 21.3585)" fill="#D0935B"/>
</g>
<g filter="url(#filter2_f_354_1134)">
<ellipse cx="89.3967" cy="18.0147" rx="8.51303" ry="10.9453" transform="rotate(30 89.3967 18.0147)" fill="#854000"/>
</g>
<g filter="url(#filter3_f_354_1134)">
<ellipse cx="84.5651" cy="13.7964" rx="7.08419" ry="14.5938" transform="rotate(35.3589 84.5651 13.7964)" fill="#FFEBA4" fill-opacity="0.85"/>
</g>
</g>
<g clip-path="url(#clip2_354_1134)">
<rect x="65.0677" y="-8.38525" width="121.615" height="121.615" rx="60.8074" transform="rotate(41.2571 65.0677 -8.38525)" fill="url(#paint1_radial_354_1134)"/>
<g filter="url(#filter4_f_354_1134)">
<circle cx="80.0089" cy="75.0901" r="55.3347" transform="rotate(41.2571 80.0089 75.0901)" fill="#004C92"/>
</g>
<g filter="url(#filter5_f_354_1134)">
<circle cx="97.1713" cy="73.9679" r="43.1732" transform="rotate(41.2571 97.1713 73.9679)" fill="#319CFF"/>
</g>
<g filter="url(#filter6_f_354_1134)">
<circle cx="106.049" cy="64.7696" r="20.6745" transform="rotate(41.2571 106.049 64.7696)" fill="#C5E3FF"/>
</g>
<g filter="url(#filter7_f_354_1134)">
<ellipse cx="100.407" cy="25.7442" rx="19.6274" ry="4.17604" transform="rotate(30 100.407 25.7442)" fill="#0072DB"/>
</g>
</g>
<path d="M100.801 49.0508H39.9434V64.2652H100.801V49.0508Z" fill="#F8F8F8"/>
<path d="M79.5009 64.2651H61.2436V109.908H79.5009V64.2651Z" fill="#F8F8F8"/>
<path d="M79.5009 64.2651H61.2436V73.3938H79.5009V64.2651Z" fill="#A3DAF5"/>
</g>
<defs>
<filter id="filter0_f_354_1134" x="78.4968" y="1.37238" width="41.81" height="44.8368" filterUnits="userSpaceOnUse" color-interpolation-filters="sRGB">
<feFlood flood-opacity="0" result="BackgroundImageFix"/>
<feBlend mode="normal" in="SourceGraphic" in2="BackgroundImageFix" result="shape"/>
<feGaussianBlur stdDeviation="4.86459" result="effect1_foregroundBlur_354_1134"/>
</filter>
<filter id="filter1_f_354_1134" x="80.3649" y="5.02099" width="29.6486" height="32.6753" filterUnits="userSpaceOnUse" color-interpolation-filters="sRGB">
<feFlood flood-opacity="0" result="BackgroundImageFix"/>
<feBlend mode="normal" in="SourceGraphic" in2="BackgroundImageFix" result="shape"/>
<feGaussianBlur stdDeviation="1.82422" result="effect1_foregroundBlur_354_1134"/>
</filter>
<filter id="filter2_f_354_1134" x="72.2486" y="-0.344183" width="34.2962" height="36.7182" filterUnits="userSpaceOnUse" color-interpolation-filters="sRGB">
<feFlood flood-opacity="0" result="BackgroundImageFix"/>
<feBlend mode="normal" in="SourceGraphic" in2="BackgroundImageFix" result="shape"/>
<feGaussianBlur stdDeviation="3.98288" result="effect1_foregroundBlur_354_1134"/>
</filter>
<filter id="filter3_f_354_1134" x="71.8994" y="-1.2277" width="25.3314" height="30.0477" filterUnits="userSpaceOnUse" color-interpolation-filters="sRGB">
<feFlood flood-opacity="0" result="BackgroundImageFix"/>
<feBlend mode="normal" in="SourceGraphic" in2="BackgroundImageFix" result="shape"/>
<feGaussianBlur stdDeviation="1.21615" result="effect1_foregroundBlur_354_1134"/>
</filter>
<filter id="filter4_f_354_1134" x="0.119509" y="-4.79913" width="159.779" height="159.779" filterUnits="userSpaceOnUse" color-interpolation-filters="sRGB">
<feFlood flood-opacity="0" result="BackgroundImageFix"/>
<feBlend mode="normal" in="SourceGraphic" in2="BackgroundImageFix" result="shape"/>
<feGaussianBlur stdDeviation="12.277" result="effect1_foregroundBlur_354_1134"/>
</filter>
<filter id="filter5_f_354_1134" x="8.7684" y="-14.4352" width="176.806" height="176.806" filterUnits="userSpaceOnUse" color-interpolation-filters="sRGB">
<feFlood flood-opacity="0" result="BackgroundImageFix"/>
<feBlend mode="normal" in="SourceGraphic" in2="BackgroundImageFix" result="shape"/>
<feGaussianBlur stdDeviation="22.6145" result="effect1_foregroundBlur_354_1134"/>
</filter>
<filter id="filter6_f_354_1134" x="63.7154" y="22.4357" width="84.6676" height="84.6676" filterUnits="userSpaceOnUse" color-interpolation-filters="sRGB">
<feFlood flood-opacity="0" result="BackgroundImageFix"/>
<feBlend mode="normal" in="SourceGraphic" in2="BackgroundImageFix" result="shape"/>
<feGaussianBlur stdDeviation="10.8295" result="effect1_foregroundBlur_354_1134"/>
</filter>
<filter id="filter7_f_354_1134" x="69.9166" y="1.91939" width="60.9813" height="47.65" filterUnits="userSpaceOnUse" color-interpolation-filters="sRGB">
<feFlood flood-opacity="0" result="BackgroundImageFix"/>
<feBlend mode="normal" in="SourceGraphic" in2="BackgroundImageFix" result="shape"/>
<feGaussianBlur stdDeviation="6.68166" result="effect1_foregroundBlur_354_1134"/>
</filter>
<linearGradient id="paint0_linear_354_1134" x1="113.548" y1="2.46941" x2="106.859" y2="14.0548" gradientUnits="userSpaceOnUse">
<stop stop-color="#FFEBA4"/>
<stop offset="1" stop-color="#FF9C41"/>
</linearGradient>
<radialGradient id="paint1_radial_354_1134" cx="0" cy="0" r="1" gradientUnits="userSpaceOnUse" gradientTransform="translate(143.509 20.8023) rotate(-58.2191) scale(65.8098)">
<stop stop-color="#C5E3FF"/>
<stop offset="1" stop-color="#4FBCF2"/>
</radialGradient>
<clipPath id="clip0_354_1134">
<rect width="140" height="140" fill="white"/>
</clipPath>
<clipPath id="clip1_354_1134">
<rect x="95.0317" y="5.82178" width="29.1875" height="26.7552" rx="7.29688" transform="rotate(30 95.0317 5.82178)" fill="white"/>
</clipPath>
<clipPath id="clip2_354_1134">
<rect x="65.0677" y="-8.38525" width="121.615" height="121.615" rx="60.8074" transform="rotate(41.2571 65.0677 -8.38525)" fill="white"/>
</clipPath>
</defs>
</svg>
